<svg data-v-423bf9ae="" xmlns="http://www.w3.org/2000/svg" viewBox="0 0 371 90" class="iconLeft"><!----><!----><!----><g data-v-423bf9ae="" id="9b2539fd-3a97-432c-ba3c-1a002abe87ba" fill="white" transform="matrix(5.952380997433594,0,0,5.952380997433594,127.65319536192706,-28.214286450085467)"><path d="M5.88 8.61L5.88 8.61L5.00 9.39L4.82 9.34L4.82 9.34Q4.42 7.78 3.11 7.78L3.11 7.78L3.11 7.78Q2.45 7.78 2.00 8.26L2.00 8.26L2.00 8.26Q1.55 8.74 1.55 9.43L1.55 9.43L1.55 9.43Q1.55 9.82 1.73 10.17L1.73 10.17L1.73 10.17Q1.90 10.51 2.23 10.78L2.23 10.78L2.23 10.78Q2.55 11.05 2.89 11.24L2.89 11.24L2.89 11.24Q3.23 11.44 3.70 11.64L3.70 11.64L3.70 11.64Q4.83 12.13 5.37 12.74L5.37 12.74L5.37 12.74Q5.92 13.34 5.92 14.16L5.92 14.16L5.92 14.16Q5.92 14.83 5.57 15.43L5.57 15.43L5.57 15.43Q5.22 16.02 4.67 16.43L4.67 16.43L4.67 16.43Q4.12 16.83 3.45 17.07L3.45 17.07L3.45 17.07Q2.77 17.30 2.10 17.30L2.10 17.30L2.10 17.30Q1.32 17.30 0.69 16.95L0.69 16.95L0.69 16.95Q0.06 16.60-0.21 15.87L-0.21 15.87L0.59 14.95L0.83 14.96L0.83 14.96Q1.34 16.66 2.69 16.66L2.69 16.66L2.69 16.66Q3.51 16.66 4.10 16.06L4.10 16.06L4.10 16.06Q4.69 15.47 4.69 14.59L4.69 14.59L4.69 14.59Q4.69 14.04 4.18 13.51L4.18 13.51L4.18 13.51Q3.68 12.99 2.99 12.69L2.99 12.69L2.99 12.69Q2.32 12.41 1.87 12.14L1.87 12.14L1.87 12.14Q1.42 11.88 1.08 11.55L1.08 11.55L1.08 11.55Q0.75 11.22 0.59 10.82L0.59 10.82L0.59 10.82Q0.43 10.42 0.43 9.92L0.43 9.92L0.43 9.92Q0.43 9.28 0.68 8.77L0.68 8.77L0.68 8.77Q0.93 8.25 1.35 7.93L1.35 7.93L1.35 7.93Q1.76 7.61 2.29 7.43L2.29 7.43L2.29 7.43Q2.82 7.26 3.40 7.26L3.40 7.26L3.40 7.26Q3.83 7.26 4.15 7.31L4.15 7.31L4.15 7.31Q4.46 7.36 4.79 7.49L4.79 7.49L4.79 7.49Q5.11 7.63 5.38 7.91L5.38 7.91L5.38 7.91Q5.65 8.18 5.88 8.61ZM16.29 16.64L16.30 16.89L16.22 17.09L14.14 17.09L13.98 16.80L13.98 16.80Q14.05 13.06 14.05 12.41L14.05 12.41L14.05 12.41Q14.05 12.35 14.01 12.30L14.01 12.30L14.01 12.30Q13.97 12.24 13.88 12.24L13.88 12.24L9.08 12.24L9.08 12.24Q9.01 12.24 8.96 12.29L8.96 12.29L8.96 12.29Q8.90 12.35 8.90 12.41L8.90 12.41L8.90 12.41Q8.90 12.71 8.89 13.46L8.89 13.46L8.89 13.46Q8.89 14.20 8.89 14.59L8.89 14.59L8.89 14.59Q8.89 16.03 8.97 16.73L8.97 16.73L7.68 17.12L7.59 17.05L7.59 17.05Q7.74 15.39 7.74 11.95L7.74 11.95L7.74 11.95Q7.74 9.63 7.66 8.46L7.66 8.46L7.66 8.46Q7.65 8.35 7.62 8.29L7.62 8.29L7.62 8.29Q7.59 8.22 7.51 8.17L7.51 8.17L7.51 8.17Q7.42 8.11 7.34 8.09L7.34 8.09L7.34 8.09Q7.26 8.06 7.04 7.99L7.04 7.99L7.04 7.99Q6.82 7.92 6.63 7.86L6.63 7.86L6.62 7.59L6.71 7.50L8.98 7.50L9.05 7.57L9.05 7.57Q8.87 8.56 8.87 11.53L8.87 11.53L8.87 11.53Q8.87 11.70 9.04 11.70L9.04 11.70L13.88 11.70L13.88 11.70Q14.05 11.70 14.05 11.53L14.05 11.53L14.05 11.53Q14.05 10.93 14.03 9.60L14.03 9.60L14.03 9.60Q14.01 8.27 14.01 7.67L14.01 7.67L15.24 7.43L15.31 7.51L15.31 7.51Q15.16 9.68 15.16 12.58L15.16 12.58L15.16 12.58Q15.16 14.28 15.22 15.98L15.22 15.98L15.22 15.98Q15.22 16.16 15.37 16.30L15.37 16.30L15.37 16.30Q15.52 16.43 15.72 16.50L15.72 16.50L15.72 16.50Q15.93 16.57 16.08 16.60L16.08 16.60L16.08 16.60Q16.24 16.64 16.29 16.64L16.29 16.64ZM20.56 16.77L20.53 17.10L16.82 17.10L16.82 16.74L16.82 16.74Q17.07 16.69 17.23 16.66L17.23 16.66L17.23 16.66Q17.38 16.63 17.53 16.57L17.53 16.57L17.53 16.57Q17.67 16.52 17.75 16.49L17.75 16.49L17.75 16.49Q17.82 16.46 17.89 16.38L17.89 16.38L17.89 16.38Q17.96 16.29 17.98 16.25L17.98 16.25L17.98 16.25Q18.01 16.20 18.03 16.06L18.03 16.06L18.03 16.06Q18.05 15.93 18.05 15.85L18.05 15.85L18.05 15.85Q18.05 15.77 18.05 15.56L18.05 15.56L18.05 15.56Q18.06 15.35 18.07 15.22L18.07 15.22L18.07 10.13L18.07 10.13Q18.07 9.06 18.03 8.52L18.03 8.52L18.03 8.52Q18.02 8.45 18.01 8.40L18.01 8.40L18.01 8.40Q18.01 8.35 17.99 8.31L17.99 8.31L17.99 8.31Q17.96 8.26 17.94 8.24L17.94 8.24L17.94 8.24Q17.92 8.22 17.87 8.19L17.87 8.19L17.87 8.19Q17.81 8.16 17.76 8.14L17.76 8.14L17.76 8.14Q17.71 8.13 17.60 8.10L17.60 8.10L17.60 8.10Q17.49 8.07 17.39 8.05L17.39 8.05L17.39 8.05Q17.29 8.03 17.12 7.99L17.12 7.99L17.12 7.99Q16.94 7.96 16.78 7.92L16.78 7.92L16.78 7.62L16.88 7.53L20.38 7.53L20.46 7.62L20.46 7.91L19.52 8.11L19.52 8.11Q19.24 8.18 19.22 8.48L19.22 8.48L19.22 8.48Q19.16 8.85 19.15 9.44L19.15 9.44L19.15 9.44Q19.14 10.04 19.16 10.92L19.16 10.92L19.16 10.92Q19.17 11.80 19.17 12.07L19.17 12.07L19.17 12.07Q19.17 13.02 19.20 14.72L19.20 14.72L19.20 14.72Q19.20 14.83 19.20 15.12L19.20 15.12L19.20 15.12Q19.19 15.41 19.20 15.59L19.20 15.59L19.20 15.59Q19.20 15.76 19.24 15.99L19.24 15.99L19.24 15.99Q19.28 16.21 19.38 16.35L19.38 16.35L19.38 16.35Q19.48 16.48 19.65 16.53L19.65 16.53L19.65 16.53Q20.50 16.77 20.56 16.77L20.56 16.77ZM28.94 7.59L30.06 7.38L30.15 7.49L30.15 7.49Q29.93 11.14 29.93 17.09L29.93 17.09L29.43 17.09L29.43 17.09Q28.92 16.52 28.49 15.97L28.49 15.97L26.26 13.20L26.26 13.20Q24.88 11.48 22.99 9.32L22.99 9.32L22.99 9.32Q22.89 9.19 22.84 9.19L22.84 9.19L22.84 9.19Q22.74 9.19 22.74 9.43L22.74 9.43L22.74 9.43Q22.74 11.56 23.07 16.74L23.07 16.74L22.09 17.16L21.97 17.04L21.97 17.04Q22.15 13.43 22.15 10.38L22.15 10.38L22.15 10.38Q22.15 10.08 22.14 9.48L22.14 9.48L22.14 9.48Q22.13 8.88 22.13 8.58L22.13 8.58L22.13 8.58Q22.13 8.55 22.14 8.49L22.14 8.49L22.14 8.49Q22.14 8.43 22.14 8.41L22.14 8.41L22.14 8.41Q22.13 8.39 22.12 8.35L22.12 8.35L22.12 8.35Q22.11 8.30 22.08 8.28L22.08 8.28L22.08 8.28Q22.05 8.26 21.99 8.22L21.99 8.22L21.99 8.22Q21.93 8.18 21.84 8.16L21.84 8.16L21.84 8.16Q21.76 8.13 21.63 8.09L21.63 8.09L21.63 8.09Q21.51 8.05 21.34 8.00L21.34 8.00L21.34 8.00Q21.17 7.96 20.95 7.91L20.95 7.91L20.89 7.53L21 7.43L23.27 7.43L23.27 7.43Q24.62 9.21 25.31 10.12L25.31 10.12L25.31 10.12Q26.00 11.03 27.14 12.44L27.14 12.44L27.14 12.44Q28.28 13.86 29.04 14.67L29.04 14.67L29.04 14.67Q29.15 14.78 29.19 14.78L29.19 14.78L29.19 14.78Q29.28 14.78 29.28 14.67L29.28 14.67L29.28 14.67Q29.28 12.54 28.94 7.59L28.94 7.59ZM31.72 12.64L31.72 12.64L31.72 12.64Q31.72 11.27 32.04 10.31L32.04 10.31L32.04 10.31Q32.36 9.35 33.13 8.52L33.13 8.52L33.13 8.52Q33.75 7.86 34.72 7.57L34.72 7.57L34.72 7.57Q35.69 7.29 36.79 7.29L36.79 7.29L36.79 7.29Q37.63 7.29 38.40 7.55L38.40 7.55L38.40 7.55Q39.16 7.81 39.70 8.35L39.70 8.35L39.70 8.35Q40.31 8.98 40.60 9.95L40.60 9.95L40.60 9.95Q40.88 10.92 40.88 12.00L40.88 12.00L40.88 12.00Q40.88 12.43 40.87 12.71L40.87 12.71L40.87 12.71Q40.85 12.98 40.80 13.38L40.80 13.38L40.80 13.38Q40.76 13.78 40.63 14.17L40.63 14.17L40.63 14.17Q40.50 14.56 40.30 14.96L40.30 14.96L40.30 14.96Q39.79 16.02 38.52 16.68L38.52 16.68L38.52 16.68Q37.25 17.34 35.63 17.34L35.63 17.34L35.63 17.34Q34.79 17.34 34.12 17.07L34.12 17.07L34.12 17.07Q33.45 16.80 33.01 16.35L33.01 16.35L33.01 16.35Q32.57 15.91 32.27 15.29L32.27 15.29L32.27 15.29Q31.97 14.68 31.85 14.02L31.85 14.02L31.85 14.02Q31.72 13.36 31.72 12.64ZM33.02 12.22L33.02 12.22L33.02 12.22Q33.02 13.30 33.27 14.16L33.27 14.16L33.27 14.16Q33.52 15.02 34.13 15.69L34.13 15.69L34.13 15.69Q35.10 16.77 36.37 16.77L36.37 16.77L36.37 16.77Q37.04 16.77 37.59 16.51L37.59 16.51L37.59 16.51Q38.14 16.26 38.50 15.83L38.50 15.83L38.50 15.83Q38.86 15.41 39.10 14.83L39.10 14.83L39.10 14.83Q39.35 14.26 39.45 13.65L39.45 13.65L39.45 13.65Q39.56 13.04 39.56 12.39L39.56 12.39L39.56 12.39Q39.56 11.76 39.45 11.15L39.45 11.15L39.45 11.15Q39.35 10.53 39.10 9.93L39.10 9.93L39.10 9.93Q38.86 9.33 38.50 8.87L38.50 8.87L38.50 8.87Q38.14 8.42 37.58 8.13L37.58 8.13L37.58 8.13Q37.02 7.85 36.34 7.85L36.34 7.85L36.34 7.85Q35.64 7.85 35.07 8.10L35.07 8.10L35.07 8.10Q34.50 8.35 34.13 8.77L34.13 8.77L34.13 8.77Q33.75 9.19 33.50 9.76L33.50 9.76L33.50 9.76Q33.24 10.33 33.13 10.94L33.13 10.94L33.13 10.94Q33.02 11.55 33.02 12.22Z"></path></g><!----><g data-v-423bf9ae="" id="539754c3-8329-446c-ad50-50a31d685512" transform="matrix(1.1822504879992326,0,0,1.1822504879992326,-5.11281634295176,-13.17552395149582)" stroke="none" fill="white"><path d="M23.233 18.321c-2.701 0-4.912 2.21-4.912 4.911v4.752h63.357v-4.752a4.926 4.926 0 0 0-4.912-4.911H23.233zM94.55 43.07l-7.506-12.771H70.732l4.473 14.059s.802 2.577 3.592 3.229V61.67H59.045V47.677a9.23 9.23 0 0 0 1.009.058c5.228 0 5.091-3 4.946-3.857l.001.004c.267 1.643 1.383 4.051 5.013 4.051 3.631 0 5.32-2.12 5.086-3.904L70.733 30.3h-8.396l2.627 13.386a1.493 1.493 0 0 0-.011-.04L62.337 30.3H37.665l-2.616 13.346-.011.04L37.665 30.3h-8.396L24.9 44.027c-.234 1.784 1.455 3.904 5.086 3.904 3.63 0 4.746-2.408 5.013-4.051l.001-.003c-.145.857-.281 3.857 4.946 3.857 4.942 0 4.93-3.377 4.93-3.377l.013-.194c.001 3.033 3.068 3.769 5.111 3.769s5.11-.735 5.111-3.769l.013.194s.003 1.232 1.092 2.209v28.689a2.205 2.205 0 0 1-2.202 2.201H20.532a2.205 2.205 0 0 1-2.202-2.201V47.622c.456.065.951.112 1.535.112 3.881 0 4.93-3.377 4.93-3.377l4.473-14.059H12.956L5.45 43.07c-1.171 2.146-.066 4.664 3.413 4.664 3.075 0 4.748-.677 6.35-4.284 0 0-1.17 2.978 2.135 3.964v27.842a3.188 3.188 0 0 0 3.185 3.184h33.481a3.187 3.187 0 0 0 3.184-3.184V47.207c.253.114.549.209.866.291v33.096a2.446 2.446 0 0 0 2.443 2.443h16.829a2.447 2.447 0 0 0 2.443-2.443V47.715c.119.008.232.02.355.02 6.355 0 4.652-4.284 4.652-4.284 1.602 3.607 3.274 4.284 6.351 4.284 3.48-.001 4.584-2.519 3.413-4.665zM70.374 30.791l4.257 13.385c.067.568-.162 1.244-.664 1.817-.819.933-2.223 1.446-3.953 1.446-3.426 0-4.308-2.279-4.528-3.638L62.933 30.79h7.441zM34.518 43.785c-.224 1.375-1.105 3.654-4.531 3.654-1.73 0-3.134-.514-3.953-1.446-.502-.573-.731-1.249-.646-1.903l4.238-13.299h7.441l-2.549 12.994zM50 47.439c-1.084 0-4.62-.236-4.62-3.278l.869-13.37h7.502l.87 13.402c-.001 3.01-3.537 3.246-4.621 3.246zm-35.235-4.191c-1.526 3.44-2.99 3.995-5.901 3.995-1.462 0-2.549-.478-3.063-1.345-.441-.744-.411-1.688.081-2.592l7.356-12.516h7.145l-5.618 12.458zm46.039 19.158a1.106 1.106 0 0 1 0 2.21 1.104 1.104 0 0 1 0-2.21zm17.993 18.188c0 .805-.655 1.461-1.461 1.461H60.507a1.464 1.464 0 0 1-1.462-1.461v-15.24h19.752v15.24zM94.2 45.898c-.514.867-1.602 1.345-3.062 1.345-2.912 0-4.376-.555-5.901-3.992l-5.618-12.46h7.145l7.364 12.529c.484.89.514 1.834.072 2.578z"></path><path d="M16.234 23.11c0-3.782 3.095-6.876 6.876-6.876h53.78c3.781 0 6.876 3.094 6.876 6.876v6.206h4.296v-7.555c0-5.402-4.42-9.824-9.823-9.824H21.762c-5.402 0-9.823 4.422-9.823 9.824v7.555h4.296V23.11zM85.487 46.536a4.06 4.06 0 0 1-.121.192c-.378.557-.919.99-1.601 1.313V76.89c0 3.782-3.095 6.876-6.876 6.876H23.11c-3.781 0-6.876-3.094-6.876-6.876V48.042c-.682-.323-1.223-.757-1.601-1.313a3.36 3.36 0 0 1-.12-.192c-.767.915-1.612 1.461-2.575 1.78v29.922c0 5.403 4.421 9.824 9.823 9.824h56.477c5.403 0 9.823-4.421 9.823-9.824V48.316c-.962-.319-1.807-.865-2.574-1.78z"></path></g><!----></svg>