<svg width="400" height="219" viewBox="0 0 400 219" fill="none" xmlns="http://www.w3.org/2000/svg">
<g clip-path="url(#clip0_30_215)">
<path d="M274.239 186.886C311.568 186.445 348.895 186.698 386.221 187.643C389.432 187.725 392.764 187.829 395.6 188.679C398.435 189.53 400.618 191.354 399.842 193.106C385.271 193.538 370.685 193.671 356.084 193.506C352.904 195.064 349.413 197.409 351.367 199.51C352.72 200.963 356.058 201.396 358.977 201.399C364.263 201.406 369.572 200.538 374.78 201.047C379.989 201.556 385.186 204.296 383.66 207.14C382.501 209.299 378.106 210.368 374.105 210.559C370.105 210.75 366.009 210.353 362.099 210.865C358.383 211.351 355.163 212.613 351.686 213.495C346.2 214.886 340.119 215.315 334.136 215.681C288.194 218.488 241.872 218.465 195.659 218.44C176.951 218.43 157.988 218.401 139.922 215.67C129.624 214.113 119.755 211.696 109.327 210.441C96.8714 208.943 83.9978 209.146 71.2597 209.191C48.8975 209.27 26.5541 208.839 4.22958 207.898C2.56827 207.828 0.529061 207.591 0.0807213 206.689C-0.442506 205.637 1.68097 204.816 3.47589 204.397C13.6467 202.042 23.9884 200.5 34.4035 199.783C39.6781 199.412 45.1135 199.224 49.9648 198.003C54.8161 196.782 59.0544 194.221 59.0089 191.235C58.995 190.324 58.6105 189.349 59.3709 188.544C60.3805 187.476 62.8647 187.23 65.0079 187.114C88.7673 185.822 112.656 185.283 136.523 185.5C144.919 185.576 153.349 185.745 161.685 185.179C168.516 184.716 175.206 183.765 181.937 182.966C190.973 181.894 230.296 176.34 236.033 180.847C240.327 184.22 231.461 184.948 242.978 186.324C253.006 187.523 264.068 187.006 274.239 186.886Z" fill="#F2F2F2"/>
<path d="M128.916 171.479C128.916 171.479 115.073 198.87 126.854 198.87C138.636 198.87 287.081 199.46 291.204 191.802C294.093 186.436 292.501 167.337 291.288 156.381C291.052 154.252 290.01 152.294 288.375 150.909C286.74 149.525 284.637 148.82 282.498 148.938C250.394 150.71 130.456 157.277 130.978 156.458C132.009 154.838 131.272 155.279 131.272 155.279C131.272 155.279 126.56 170.301 128.916 171.479Z" fill="#3F3D56"/>
<path opacity="0.1" d="M291.582 156.381C291.347 154.252 290.305 152.294 288.67 150.909C287.035 149.525 284.932 148.82 282.793 148.938C250.688 150.71 130.751 157.277 131.272 156.458C132.303 154.838 131.567 155.279 131.567 155.279C131.567 155.279 130.515 158.633 129.654 162.295C129.776 162.283 129.867 162.398 129.469 163.097C129.434 163.255 129.399 163.413 129.365 163.571C134.169 164.046 249.366 157.738 280.731 156.007C282.87 155.888 284.973 156.594 286.608 157.978C288.243 159.362 289.285 161.321 289.521 163.45C290.422 171.595 291.533 184.241 290.857 192.398C291.118 192.257 291.339 192.051 291.499 191.802C294.388 186.436 292.795 167.337 291.582 156.381Z" fill="black"/>
<path d="M145.416 130.428C143.881 129.958 141.939 129.351 142.114 128.36C142.207 127.834 142.911 127.424 143.421 126.983C144.405 126.132 144.67 124.934 143.614 124.113C142.557 123.292 140.013 123.182 139.081 124.051C138.602 124.498 138.631 125.059 138.383 125.564C137.611 127.139 134.487 127.831 131.833 128.443C129.179 129.055 126.21 130.194 126.459 131.823C126.732 133.601 130.826 135.178 129.178 136.694C128.581 137.244 127.324 137.551 127.057 138.179C126.869 138.622 127.247 139.072 127.614 139.476L130.221 142.348C131.258 143.491 132.327 144.734 131.979 146.007C131.291 148.528 125.694 149.493 121.257 149.209C119.633 149.105 117.723 148.963 116.607 149.646C115.747 150.172 115.748 150.992 116.034 151.693C116.77 153.498 119.125 155.062 122.138 155.746C118.761 156.412 117.434 159.221 119.766 160.768C118.432 161.228 116.989 161.269 115.63 160.887C114.477 161.949 115.155 163.406 116.618 164.335C118.081 165.263 120.153 165.786 122.159 166.282L120.282 168.038C121.64 169.099 124.575 168.725 126.554 168.054C128.533 167.384 130.68 166.483 132.897 166.834C134.977 167.163 136.549 168.55 138.667 168.313C140.308 168.128 141.088 167.074 141.6 166.164L143.773 162.295C146.866 162.779 150.119 160.659 148.876 158.969C152.338 159.341 155.745 157.093 154.609 155.187C156.452 156.609 157.75 158.26 158.385 159.993C158.669 160.767 158.842 161.585 159.615 162.241C160.12 162.617 160.705 162.871 161.325 162.983C161.944 163.095 162.582 163.062 163.186 162.887C162.555 164.111 162.044 165.539 163.341 166.578C164.638 167.616 168.382 167.322 168.216 166.049C170.194 166.899 172.411 167.698 174.883 167.761C177.355 167.825 180.061 166.884 180.286 165.475C183.77 166.624 187.415 167.211 191.083 167.213C191.395 166.27 193.574 165.965 195.204 166.196C196.833 166.426 198.345 166.98 200.023 166.981C201.702 166.982 203.507 165.971 202.647 165.147C206.182 165.887 209.81 166.07 213.401 165.69C216.788 165.33 219.998 164.476 223.428 164.291C226.908 164.079 230.392 164.63 233.636 165.903C234.761 166.375 236.159 166.968 237.394 166.599C238.095 166.389 238.435 165.936 238.911 165.575C240.96 164.02 245.15 164.318 248.382 164.929C251.614 165.541 255.374 166.276 258.206 165.196C259.275 164.789 260.062 164.159 261.199 163.817C265.271 162.591 270.145 165.732 274.467 164.828C275.874 164.534 277.016 163.83 278.507 163.743C281.152 163.589 282.899 165.381 285.47 165.767C288.138 166.167 291.03 164.543 290.38 163.011C292.944 163.068 295.501 162.713 297.952 161.959L296.741 159.779C299.759 159.73 301.979 157.567 300.581 156.037C303.607 155.461 306 153.909 306.622 152.121C307.244 150.332 306.071 148.375 303.661 147.181C302.238 146.476 300.369 145.98 299.556 145.01C298.971 144.311 299.056 143.497 298.828 142.733C298.33 141.061 296.169 139.584 293.377 139.009C292.165 138.759 290.838 138.664 289.74 138.277C288.643 137.891 287.85 137.055 288.483 136.413C288.819 136.073 289.464 135.873 289.882 135.565C291.575 134.315 288.672 132.732 286.194 132.03L292.112 131.837L293.383 126.074C291.041 127.979 284.967 127.578 283.445 125.419C285.347 126.043 287.897 125.245 288.826 124.11C289.756 122.975 289.527 121.655 289.279 120.41C289.256 120.101 289.152 119.803 288.98 119.545C288.807 119.288 288.57 119.079 288.293 118.941C287.713 118.665 286.79 118.549 286.6 118.132C286.406 117.707 287.156 117.33 287.267 116.895C287.48 116.06 285.56 115.691 284.263 115.287C281.203 114.334 279.722 111.655 276.24 111.742C272.786 111.829 271.821 114.466 271.818 116.443C271.816 118.419 270.647 121.063 267.19 121.027C265.81 121.012 264.606 120.516 263.504 120.04L253.603 115.77C252.294 115.162 250.933 114.674 249.537 114.313C247.539 113.847 245.333 113.791 243.178 113.743L229.327 113.428C228.622 113.372 227.912 113.433 227.226 113.608C226.499 113.851 226.145 114.33 225.707 114.742C223.779 116.552 219.244 117.262 215.972 116.264C215.104 116 214.327 115.635 213.407 115.436C210.511 114.809 207.472 115.97 204.463 116.389C199.531 117.077 193.401 115.893 189.845 117.965C188.66 118.656 188.031 119.6 186.932 120.336C185.834 121.072 183.851 121.571 182.466 121.015C182.64 122.366 182.798 123.776 181.884 125.026C180.969 126.275 178.624 127.295 176.32 126.98C175.097 126.657 175.193 125.629 175.771 124.933C176.35 124.237 177.237 123.526 176.949 122.774C176.662 122.028 175.353 121.593 174.374 121.073C173.395 120.553 172.742 119.567 173.782 119.086C173.082 118.186 170.563 118.296 169.456 119.051C168.348 119.806 168.237 120.869 168.116 121.853C167.996 122.836 167.732 123.913 166.449 124.571C164.261 125.692 160.062 125.11 158.612 126.571C158.151 127.035 158.124 127.594 157.86 128.106C156.683 130.39 151.603 130.982 147.45 131.168C147.362 131.644 147.343 132.129 147.392 132.61C148.812 131.995 146.445 130.744 145.416 130.428Z" fill="#61AB43"/>
<path opacity="0.1" d="M289.279 127.819C289.527 129.064 289.756 130.384 288.826 131.519C288.688 131.683 288.532 131.831 288.361 131.96C289.611 131.919 290.862 131.878 292.112 131.837C292.536 129.916 292.959 127.995 293.383 126.075C292.413 126.864 290.802 127.256 289.14 127.293C289.199 127.464 289.246 127.64 289.279 127.819Z" fill="black"/>
<path opacity="0.1" d="M290.372 134.606C290.224 133.827 288.94 133.037 287.502 132.472C286.236 133.073 284.796 133.199 283.445 132.828C284.495 134.317 287.709 134.969 290.372 134.606Z" fill="black"/>
<path opacity="0.1" d="M292.209 138.805C292.177 138.952 292.145 139.099 292.112 139.246C290.139 139.31 288.166 139.375 286.194 139.439C288.672 140.141 291.575 141.724 289.882 142.974C289.465 143.282 288.819 143.482 288.483 143.822C287.85 144.464 288.643 145.3 289.74 145.686C290.838 146.072 292.165 146.168 293.377 146.418C296.169 146.993 298.33 148.47 298.828 150.142C299.056 150.906 298.971 151.72 299.556 152.419C300.37 153.389 302.238 153.885 303.661 154.59C303.798 154.658 303.93 154.729 304.058 154.802C305.345 154.074 306.269 153.136 306.622 152.121C307.244 150.332 306.071 148.376 303.661 147.181C302.238 146.476 300.37 145.981 299.556 145.01C298.971 144.311 299.056 143.498 298.828 142.734C298.33 141.061 296.169 139.585 293.377 139.009C292.996 138.93 292.603 138.867 292.209 138.805Z" fill="black"/>
<path opacity="0.1" d="M118.809 165.341C119.27 164.36 120.447 163.489 122.138 163.155C120.522 162.819 118.999 162.133 117.678 161.143C116.986 161.164 116.296 161.077 115.63 160.887C114.477 161.949 115.155 163.406 116.618 164.335C117.308 164.752 118.043 165.09 118.809 165.341Z" fill="black"/>
<path opacity="0.1" d="M129.249 136.622C130.092 136.306 130.955 136.049 131.833 135.852C134.487 135.24 137.611 134.548 138.383 132.973C138.631 132.468 138.602 131.907 139.081 131.46C140.013 130.591 142.557 130.701 143.614 131.522C144.67 132.343 144.405 133.541 143.421 134.391C142.911 134.833 142.207 135.243 142.114 135.769C141.939 136.76 143.881 137.367 145.416 137.837C146.138 138.07 146.814 138.426 147.414 138.891C147.427 138.786 147.44 138.681 147.45 138.577C151.603 138.391 156.683 137.799 157.86 135.515C158.124 135.003 158.151 134.443 158.612 133.98C160.062 132.519 164.262 133.101 166.449 131.979C167.732 131.322 167.996 130.245 168.116 129.261C168.237 128.278 168.348 127.215 169.456 126.46C170.563 125.705 173.082 125.595 173.782 126.495C172.743 126.976 173.395 127.962 174.374 128.482C175.353 129.002 176.663 129.437 176.949 130.183C177.237 130.935 176.35 131.646 175.771 132.342C175.193 133.038 175.097 134.066 176.32 134.389C178.624 134.704 180.969 133.684 181.884 132.435C182.798 131.185 182.64 129.775 182.466 128.424C183.851 128.98 185.834 128.481 186.932 127.745C188.031 127.009 188.66 126.064 189.845 125.374C193.401 123.302 199.531 124.486 204.463 123.798C207.472 123.379 210.511 122.217 213.407 122.845C214.327 123.044 215.104 123.409 215.972 123.673C219.244 124.671 223.779 123.961 225.707 122.151C226.145 121.739 226.499 121.26 227.226 121.017C227.912 120.842 228.622 120.781 229.327 120.837C233.944 120.942 238.561 121.047 243.178 121.151C245.333 121.2 247.539 121.255 249.537 121.722C250.933 122.083 252.294 122.571 253.603 123.179C256.903 124.603 260.203 126.026 263.504 127.449C264.606 127.925 265.81 128.421 267.19 128.436C270.647 128.472 271.816 125.828 271.818 123.852C271.821 121.875 272.786 119.238 276.24 119.151C279.722 119.064 281.203 121.743 284.263 122.696C285.56 123.1 287.48 123.469 287.267 124.304C287.168 124.692 286.564 125.033 286.57 125.404C287.432 125.201 288.216 124.751 288.826 124.111C289.756 122.976 289.527 121.656 289.279 120.41C289.256 120.101 289.152 119.803 288.98 119.546C288.807 119.288 288.57 119.08 288.293 118.941C287.713 118.665 286.79 118.55 286.6 118.133C286.406 117.707 287.156 117.331 287.267 116.895C287.48 116.06 285.56 115.692 284.263 115.288C281.203 114.334 279.722 111.655 276.24 111.743C272.786 111.829 271.821 114.466 271.818 116.443C271.816 118.42 270.647 121.063 267.19 121.027C265.81 121.012 264.606 120.516 263.504 120.041C260.203 118.617 256.903 117.194 253.603 115.771C252.294 115.162 250.933 114.674 249.537 114.313C247.539 113.847 245.333 113.792 243.178 113.743C238.561 113.638 233.944 113.533 229.327 113.428C228.622 113.373 227.912 113.434 227.226 113.609C226.499 113.852 226.145 114.33 225.707 114.742C223.779 116.553 219.244 117.262 215.972 116.265C215.104 116 214.327 115.636 213.407 115.436C210.511 114.809 207.472 115.97 204.463 116.389C199.531 117.077 193.401 115.893 189.845 117.965C188.66 118.656 188.031 119.6 186.932 120.336C185.834 121.072 183.851 121.572 182.466 121.016C182.64 122.367 182.798 123.776 181.884 125.026C180.969 126.275 178.624 127.295 176.32 126.98C175.097 126.657 175.193 125.629 175.771 124.933C176.35 124.238 177.237 123.527 176.949 122.774C176.663 122.028 175.353 121.594 174.374 121.073C173.396 120.553 172.743 119.567 173.782 119.087C173.082 118.186 170.563 118.296 169.456 119.051C168.348 119.806 168.237 120.87 168.116 121.853C167.996 122.836 167.732 123.913 166.449 124.571C164.262 125.692 160.062 125.11 158.612 126.571C158.151 127.035 158.124 127.594 157.86 128.106C156.683 130.391 151.603 130.982 147.45 131.169C147.44 131.273 147.427 131.377 147.414 131.482C146.814 131.018 146.138 130.661 145.416 130.428C143.881 129.958 141.939 129.351 142.114 128.361C142.207 127.834 142.911 127.424 143.421 126.983C144.405 126.132 144.67 124.935 143.614 124.113C142.557 123.292 140.013 123.182 139.081 124.051C138.602 124.498 138.631 125.059 138.383 125.564C137.611 127.139 134.487 127.831 131.833 128.443C129.179 129.055 126.21 130.194 126.459 131.824C126.727 133.573 130.692 135.128 129.249 136.622Z" fill="black"/>
<path opacity="0.1" d="M122.138 155.746C121.408 155.881 120.711 156.154 120.084 156.55C120.481 156.568 120.877 156.594 121.257 156.618C125.694 156.901 131.291 155.937 131.979 153.415C132.327 152.143 131.258 150.9 130.221 149.757C129.804 149.298 129.387 148.838 128.97 148.379C126.799 149.116 123.834 149.374 121.257 149.209C119.633 149.106 117.723 148.964 116.607 149.646C115.747 150.172 115.748 150.992 116.034 151.693C116.77 153.498 119.125 155.062 122.138 155.746Z" fill="black"/>
<path d="M212.491 144.217C236.891 144.217 256.671 131.162 256.671 115.058C256.671 98.954 236.891 85.8992 212.491 85.8992C188.091 85.8992 168.311 98.954 168.311 115.058C168.311 131.162 188.091 144.217 212.491 144.217Z" fill="#EA565C"/>
<path opacity="0.2" d="M197.47 112.996C197.47 112.996 177.441 115.058 183.332 106.517C189.223 97.975 196.586 95.0297 200.121 97.386C203.655 99.7422 205.128 106.222 204.539 106.222C203.95 106.222 195.408 101.215 192.463 105.044C189.517 108.873 197.47 112.996 197.47 112.996Z" fill="white"/>
<path opacity="0.2" d="M214.824 113.831C214.824 113.831 231.363 125.313 221.329 127.957C211.296 130.6 203.791 128.038 202.644 123.948C201.497 119.858 204.601 113.982 205.048 114.366C205.495 114.75 208.714 124.113 213.443 123.126C218.171 122.14 214.824 113.831 214.824 113.831Z" fill="white"/>
<path opacity="0.2" d="M218.685 106.635C218.685 106.635 219.99 86.5436 227.43 93.7755C234.871 101.007 236.547 108.759 233.635 111.851C230.723 114.943 224.088 115.315 224.186 114.734C224.284 114.154 230.645 106.566 227.361 103.024C224.076 99.4815 218.685 106.635 218.685 106.635Z" fill="white"/>
<path d="M159.18 141.861C183.58 141.861 203.36 128.806 203.36 112.702C203.36 96.5978 183.58 83.543 159.18 83.543C134.78 83.543 115 96.5978 115 112.702C115 128.806 134.78 141.861 159.18 141.861Z" fill="#EA565C"/>
<path opacity="0.2" d="M144.159 110.64C144.159 110.64 124.131 112.702 130.021 104.16C135.912 95.6188 143.276 92.6735 146.81 95.0298C150.344 97.3861 151.817 103.866 151.228 103.866C150.639 103.866 142.097 98.8587 139.152 102.688C136.207 106.517 144.159 110.64 144.159 110.64Z" fill="white"/>
<path opacity="0.2" d="M161.513 111.475C161.513 111.475 178.052 122.957 168.019 125.601C157.985 128.244 150.48 125.682 149.333 121.592C148.186 117.502 151.29 111.626 151.737 112.01C152.184 112.394 155.403 121.757 160.132 120.77C164.861 119.784 161.513 111.475 161.513 111.475Z" fill="white"/>
<path opacity="0.2" d="M165.374 104.279C165.374 104.279 166.679 84.1871 174.12 91.4191C181.56 98.651 183.237 106.402 180.324 109.494C177.412 112.587 170.777 112.959 170.876 112.378C170.974 111.797 177.334 104.21 174.05 100.667C170.765 97.125 165.374 104.279 165.374 104.279Z" fill="white"/>
<path opacity="0.1" d="M182.172 87.8865C191.795 93.2353 197.912 101.245 197.912 110.198C197.912 126.302 178.131 139.357 153.731 139.357C145.371 139.357 137.553 137.824 130.887 135.161C138.572 139.433 148.494 142.008 159.328 142.008C183.728 142.008 203.508 128.953 203.508 112.849C203.508 102.263 194.96 92.9952 182.172 87.8865Z" fill="black"/>
<path opacity="0.1" d="M235.483 89.9482C245.106 95.2971 251.222 103.307 251.222 112.26C251.222 128.364 231.442 141.419 207.042 141.419C198.681 141.419 190.864 139.886 184.198 137.223C191.883 141.494 201.804 144.07 212.638 144.07C237.038 144.07 256.818 131.015 256.818 114.911C256.818 104.325 248.271 95.057 235.483 89.9482Z" fill="black"/>
<path d="M132.331 107.116C132.331 107.116 170.326 66.47 263.399 83.2584C336.973 96.5298 276.556 119.372 248.013 128.36C239.732 130.967 231.153 132.511 222.483 132.957C190.283 134.615 109.288 136.097 132.331 107.116Z" fill="#714B4F"/>
<path opacity="0.1" d="M248.013 119.23C239.732 121.836 231.153 123.381 222.483 123.826C196.397 125.17 138.292 126.396 129.415 111.406C118.205 135.636 192.085 134.228 222.483 132.662C231.153 132.217 239.732 130.672 248.013 128.066C268.935 121.478 306.979 107.446 296.831 95.1963C289.999 104.81 264.004 114.194 248.013 119.23Z" fill="black"/>
<path opacity="0.1" d="M213.475 83.4058L223.784 103.729" stroke="black" stroke-width="2" stroke-miterlimit="10"/>
<path opacity="0.1" d="M181.665 90.769L190.501 107.852" stroke="black" stroke-width="2" stroke-miterlimit="10"/>
<path opacity="0.1" d="M232.031 83.4058L245.874 103.729" stroke="black" stroke-width="2" stroke-miterlimit="10"/>
<path opacity="0.1" d="M181.665 109.619L274.444 97.8379" stroke="black" stroke-width="2" stroke-miterlimit="10"/>
<path opacity="0.1" d="M270.909 87.2346L277.389 96.3652" stroke="black" stroke-width="2" stroke-miterlimit="10"/>
<path opacity="0.1" d="M163.404 97.8379L167.528 106.379" stroke="black" stroke-width="2" stroke-miterlimit="10"/>
<path d="M177.253 70.1674C177.253 70.1674 261.979 69.7841 262.756 69.0175C263.533 68.2509 281.411 67.8447 284.909 72.8277C288.407 77.8106 289.573 80.1104 284.909 80.8771C280.245 81.6437 126.729 160.221 126.729 160.221C126.729 160.221 118.179 160.987 122.454 152.555C126.729 144.122 177.253 70.1674 177.253 70.1674Z" fill="#F6C964"/>
<path d="M212.824 105.215C212.824 108.387 197.527 116.113 178.658 116.113C159.788 116.113 144.492 108.387 144.492 105.215C144.492 102.043 159.788 100.797 178.658 100.797C197.527 100.797 212.824 102.043 212.824 105.215Z" fill="#61AB43"/>
<path d="M178.658 110.812C197.527 110.812 212.824 108.24 212.824 105.068C212.824 101.896 197.527 99.3247 178.658 99.3247C159.788 99.3247 144.492 101.896 144.492 105.068C144.492 108.24 159.788 110.812 178.658 110.812Z" fill="#61AB43"/>
<path d="M254.058 99.9139C254.058 103.086 238.762 110.812 219.892 110.812C201.023 110.812 185.726 103.086 185.726 99.9139C185.726 96.7419 201.023 95.4958 219.892 95.4958C238.762 95.4958 254.058 96.7419 254.058 99.9139Z" fill="#61AB43"/>
<path d="M219.892 105.51C238.762 105.51 254.058 102.939 254.058 99.7666C254.058 96.5946 238.762 94.0232 219.892 94.0232C201.023 94.0232 185.726 96.5946 185.726 99.7666C185.726 102.939 201.023 105.51 219.892 105.51Z" fill="#61AB43"/>
<path d="M295.293 94.6121C295.293 97.7841 279.997 105.51 261.127 105.51C242.258 105.51 226.961 97.7841 226.961 94.6121C226.961 91.4401 242.258 90.1941 261.127 90.1941C279.997 90.1941 295.293 91.4401 295.293 94.6121Z" fill="#61AB43"/>
<path d="M261.127 100.208C279.997 100.208 295.293 97.6369 295.293 94.4649C295.293 91.2929 279.997 88.7214 261.127 88.7214C242.258 88.7214 226.961 91.2929 226.961 94.4649C226.961 97.6369 242.258 100.208 261.127 100.208Z" fill="#61AB43"/>
<path d="M135.3 96.244C135.3 96.244 121.249 93.9565 128.438 82.5189C135.627 71.0813 138.045 58.26 141.183 55.3955C144.69 52.1931 217.084 -3.95508 273.482 58.176C279.457 64.8368 284.314 72.4211 287.865 80.6345C288.547 82.1873 289.299 83.581 290.034 84.3162C292.322 86.6037 294.283 93.1395 290.034 96.4074C285.786 99.6752 160.626 112.42 135.3 96.244Z" fill="#3F3D56"/>
<path d="M201.148 48.6962C200.282 49.2984 199.261 49.6387 198.207 49.6765C196.583 49.6765 195.266 49.2376 195.266 48.6962C195.266 48.1547 196.583 47.7158 198.207 47.7158C199.261 47.7537 200.282 48.094 201.148 48.6962Z" fill="#F2F2F2"/>
<path d="M177.619 42.4874C176.753 43.0896 175.732 43.43 174.678 43.4678C173.054 43.4678 171.737 43.0289 171.737 42.4874C171.737 41.946 173.054 41.5071 174.678 41.5071C175.732 41.5449 176.753 41.8853 177.619 42.4874Z" fill="#F2F2F2"/>
<path d="M241.536 51.5351C240.529 51.8512 239.453 51.8712 238.436 51.5926C236.886 51.1076 235.76 50.2956 235.922 49.7788C236.083 49.2621 237.471 49.2363 239.021 49.7213C240.016 50.0721 240.889 50.7018 241.536 51.5351Z" fill="#F2F2F2"/>
<path d="M198.073 34.869C197.067 35.1852 195.991 35.2052 194.973 34.9266C193.423 34.4416 192.297 33.6296 192.459 33.1128C192.621 32.5961 194.008 32.5703 195.559 33.0553C196.553 33.4061 197.426 34.0358 198.073 34.869Z" fill="#F2F2F2"/>
<path d="M245.457 40.7511C244.451 41.0673 243.375 41.0873 242.357 40.8087C240.807 40.3237 239.682 39.5116 239.843 38.9949C240.005 38.4782 241.393 38.4524 242.943 38.9374C243.938 39.2882 244.81 39.9178 245.457 40.7511Z" fill="#F2F2F2"/>
<path d="M235.788 39.8729C234.922 40.4751 233.901 40.8155 232.846 40.8533C231.222 40.8533 229.905 40.4144 229.905 39.8729C229.905 39.3315 231.222 38.8926 232.846 38.8926C233.901 38.9304 234.922 39.2707 235.788 39.8729Z" fill="#F2F2F2"/>
<path d="M207.684 33.9909C206.818 34.593 205.797 34.9334 204.743 34.9712C203.118 34.9712 201.802 34.5323 201.802 33.9909C201.802 33.4494 203.118 33.0105 204.743 33.0105C205.797 33.0483 206.818 33.3887 207.684 33.9909Z" fill="#F2F2F2"/>
<path d="M229.252 33.9909C228.386 34.593 227.365 34.9334 226.311 34.9712C224.686 34.9712 223.37 34.5323 223.37 33.9909C223.37 33.4494 224.686 33.0105 226.311 33.0105C227.365 33.0483 228.386 33.3887 229.252 33.9909Z" fill="#F2F2F2"/>
<path d="M221.082 46.7355C220.216 47.3377 219.195 47.678 218.141 47.7159C216.517 47.7159 215.2 47.2769 215.2 46.7355C215.2 46.1941 216.517 45.7551 218.141 45.7551C219.195 45.793 220.216 46.1333 221.082 46.7355Z" fill="#F2F2F2"/>
<path d="M197.32 44.4453C197.565 43.4195 198.1 42.4858 198.861 41.7558C200.074 40.6744 201.348 40.1252 201.709 40.5292C202.069 40.9332 201.379 42.1374 200.167 43.2188C199.355 43.8924 198.367 44.3181 197.32 44.4453Z" fill="#F2F2F2"/>
<path d="M182.614 40.8506C182.859 39.8247 183.395 38.8911 184.156 38.161C185.368 37.0796 186.643 36.5305 187.003 36.9345C187.364 37.3385 186.673 38.5427 185.461 39.6241C184.65 40.2976 183.661 40.7234 182.614 40.8506Z" fill="#F2F2F2"/>
<path d="M157.125 58.4973C157.37 57.4715 157.905 56.5378 158.667 55.8078C159.879 54.7264 161.153 54.1772 161.514 54.5812C161.874 54.9852 161.184 56.1894 159.972 57.2708C159.16 57.9443 158.172 58.3701 157.125 58.4973Z" fill="#F2F2F2"/>
<path d="M213.659 38.8899C213.904 37.864 214.44 36.9304 215.201 36.2004C216.413 35.119 217.688 34.5698 218.048 34.9738C218.409 35.3778 217.718 36.582 216.506 37.6634C215.695 38.3369 214.706 38.7627 213.659 38.8899Z" fill="#F2F2F2"/>
<path d="M207.777 50.6543C208.022 49.6285 208.557 48.6948 209.319 47.9648C210.531 46.8834 211.805 46.3342 212.166 46.7382C212.526 47.1422 211.836 48.3464 210.624 49.4278C209.812 50.1013 208.824 50.5271 207.777 50.6543Z" fill="#F2F2F2"/>
<path d="M316.324 178.714C316.324 178.714 311.85 180.056 309.613 182.741C309.613 182.741 305.586 184.531 303.125 184.083C300.664 183.636 296.19 188.11 299.769 189.452C303.349 190.795 325.273 194.374 325.72 193.255C326.168 192.137 326.168 180.728 326.168 180.728L316.324 178.714Z" fill="#575A89"/>
<path d="M351.47 176.793C351.47 176.793 347.291 178.88 345.545 181.907C345.545 181.907 341.883 184.358 339.382 184.338C336.881 184.317 333.237 189.49 336.993 190.201C340.749 190.912 362.962 190.694 363.212 189.516C363.462 188.337 361.513 177.095 361.513 177.095L351.47 176.793Z" fill="#575A89"/>
<path d="M323.595 25.1349C329.155 25.1349 333.662 20.6277 333.662 15.0678C333.662 9.50792 329.155 5.00073 323.595 5.00073C318.035 5.00073 313.528 9.50792 313.528 15.0678C313.528 20.6277 318.035 25.1349 323.595 25.1349Z" fill="#FFB9B9"/>
<path d="M331.76 16.7458C331.76 16.7458 332.879 24.3521 334.892 25.247C336.293 25.9365 337.577 26.8425 338.696 27.9315L333.103 30.6161L322.141 29.9449C322.141 29.9449 323.036 25.0232 321.47 22.5624C319.904 20.1015 331.76 16.7458 331.76 16.7458Z" fill="#FFB9B9"/>
<path d="M352.566 52.7637C352.566 52.7637 357.711 65.9628 352.566 78.7144C347.42 91.466 345.183 93.4795 345.183 93.4795L343.617 76.701L345.418 75.0674C345.418 75.0674 346.508 69.977 345.622 66.9632C344.736 63.9493 346.078 54.5534 346.078 54.5534L352.566 52.7637Z" fill="#FFB9B9"/>
<path d="M314.087 81.3987C314.087 81.3987 307.599 96.1638 308.271 103.323C308.942 110.481 314.087 140.683 314.087 140.683C314.087 140.683 313.416 179.609 315.429 179.609C317.443 179.609 327.062 183.188 327.062 180.727C327.062 178.267 329.076 119.206 329.076 119.206C329.076 119.206 340.485 145.157 341.604 147.17C342.722 149.184 349.881 180.727 352.342 180.727C354.803 180.727 362.409 178.49 361.738 176.924C361.067 175.358 353.461 140.459 349.21 131.51C344.959 122.562 345.854 88.7813 345.854 88.7813L338.695 73.1213L314.087 81.3987Z" fill="#3F3D56"/>
<path d="M320.575 10.4818C320.575 10.4818 314.311 10.0343 313.863 8.46834C313.416 6.90235 312.521 5.56006 312.969 5.56006C313.416 5.56006 313.64 4.4415 313.64 4.4415C313.64 4.4415 314.087 4.21779 314.311 4.4415C314.534 4.66521 314.758 2.87551 314.758 2.87551C314.758 2.87551 314.982 2.20437 315.206 2.6518C315.429 3.09923 315.429 2.87551 315.653 2.20437C315.877 1.53323 316.995 1.08581 316.995 1.08581C316.995 1.08581 321.246 1.30952 321.917 0.414671C322.588 -0.480179 330.194 0.190953 331.76 1.30952C333.326 2.42808 340.262 6.45492 339.143 9.81062C338.024 13.1663 333.998 20.5489 333.998 21.6674C333.998 22.786 332.432 22.5623 331.984 21.4437C331.537 20.3251 327.957 18.9829 327.957 18.3117C327.957 17.6406 325.944 11.3766 324.825 11.824C323.707 12.2715 322.364 15.8509 321.917 15.1797C321.47 14.5086 320.575 10.4818 320.575 10.4818Z" fill="#3F3D56"/>
<path d="M351.447 41.1305C351.447 41.1305 342.275 27.7077 339.59 27.0365C336.906 26.3654 330.866 24.5757 330.866 24.5757C330.866 24.5757 324.825 25.4705 323.036 26.3654C321.246 27.2602 314.535 28.8262 314.311 31.5108C314.087 34.1954 316.101 59.9224 314.982 62.3832C313.863 64.8441 310.06 88.334 311.85 87.8865C313.64 87.4391 312.297 81.6226 320.127 81.3988C327.957 81.1751 332.208 76.4771 335.116 82.07C338.024 87.6628 346.302 91.9134 346.302 91.9134C346.51 90.1098 346.809 88.3178 347.197 86.5442C347.868 83.4123 345.407 75.806 345.407 75.806C345.407 75.806 345.631 58.1327 346.526 56.1192C347.42 54.1058 351.447 41.1305 351.447 41.1305Z" fill="#F95738"/>
<path d="M348.091 40.6831L351.447 41.1305C351.447 41.1305 351.223 45.6048 352.118 46.9471C353.013 48.2893 354.579 55.2245 353.684 55.4482C352.789 55.6719 344.736 57.0142 344.736 57.0142L344.288 46.7234L348.091 40.6831Z" fill="#F95738"/>
<path d="M311.85 48.7368C311.85 48.7368 309.613 63.2782 308.494 65.0679C307.376 66.8576 301.783 91.9135 301.783 91.9135C301.783 91.9135 292.586 104.703 297.06 104.479C301.535 104.256 306.257 92.8083 306.257 92.8083C306.257 92.8083 320.127 67.5287 320.127 64.8442C320.127 62.1596 323.483 48.7368 323.483 48.7368L311.85 48.7368Z" fill="#FFB9B9"/>
<path d="M318.338 29.05L314.311 30.616C314.311 30.616 309.165 48.9605 310.284 50.5265C311.403 52.0925 324.825 49.8554 325.049 49.1842C325.273 48.5131 322.588 29.05 318.338 29.05Z" fill="#F95738"/>
<path d="M35.7093 150.454C35.7093 172.251 49.3835 189.889 66.2821 189.889L35.7093 150.454Z" fill="#46455B"/>
<path d="M66.2821 189.889C66.2821 167.847 81.5416 150.011 100.4 150.011L66.2821 189.889Z" fill="#F95738"/>
<path d="M46.7864 152.43C46.7864 173.135 55.5062 189.888 66.2821 189.888L46.7864 152.43Z" fill="#F95738"/>
<path d="M66.2821 189.888C66.2821 161.724 83.9197 138.934 105.717 138.934L66.2821 189.888Z" fill="#46455B"/>
<path d="M59.8503 190.167C59.8503 190.167 64.1861 190.033 65.4927 189.103C66.7994 188.172 72.1622 187.061 72.4863 188.553C72.8105 190.046 79.0021 195.975 74.1071 196.015C69.2121 196.054 62.7333 195.252 61.4291 194.458C60.1249 193.663 59.8503 190.167 59.8503 190.167Z" fill="#A8A8A8"/>
<path opacity="0.2" d="M74.1945 195.495C69.2995 195.535 62.8207 194.733 61.5165 193.938C60.5233 193.333 60.1275 191.162 59.9951 190.161C59.9034 190.165 59.8504 190.167 59.8504 190.167C59.8504 190.167 60.125 193.663 61.4291 194.458C62.7333 195.252 69.2121 196.054 74.1071 196.015C75.5201 196.003 76.0082 195.501 75.9814 194.756C75.7851 195.206 75.2462 195.487 74.1945 195.495Z" fill="black"/>
</g>
<defs>
<clipPath id="clip0_30_215">
<rect width="400" height="218.445" fill="white"/>
</clipPath>
</defs>
</svg>
