<svg width="300" height="241" viewBox="0 0 300 241" fill="none" xmlns="http://www.w3.org/2000/svg">
<path opacity="0.1" d="M109.205 239.037C169.517 239.037 218.41 237.241 218.41 235.025C218.41 232.809 169.517 231.012 109.205 231.012C48.8927 231.012 0 232.809 0 235.025C0 237.241 48.8927 239.037 109.205 239.037Z" fill="#F95738"/>
<path opacity="0.1" d="M80.4955 7.28437C87.4528 0.893066 98.3733 -0.409517 108.314 0.0996051C139.536 1.69874 167.72 17.2381 192.099 34.8149C200.925 41.1779 209.614 48.0353 215.343 56.7978C227.005 74.6353 223.546 99.3461 207.33 114.041C201.812 119.041 195.124 122.873 188.258 126.271C176.049 132.312 162.876 137.162 149.019 138.542C139.138 139.526 129.135 138.726 119.311 137.353C91.8652 133.515 64.9248 125.03 42.3448 110.513C32.4413 104.146 23.1067 96.2303 19.0247 85.9299C14.9426 75.6295 17.5551 62.5768 27.6676 56.4799C31.85 53.9583 36.8506 52.8195 41.7464 51.7501C48.9527 50.176 56.2747 48.6244 62.7778 45.4243C69.4948 42.1191 77.4483 35.7274 76.1184 28.4117C74.6914 20.5621 73.5465 13.6682 80.4955 7.28437Z" fill="#F95738"/>
<path d="M152.327 90.6519C151.852 89.703 149.338 83.806 149.338 83.806L145.126 72.5544C145.126 72.5544 142.136 67.8097 142.136 66.9286C142.136 66.0474 136.701 62.5228 136.701 62.5228C136.701 62.5228 132.285 61.1672 131.946 61.0316C131.606 60.896 126.375 59.112 126.375 59.112C126.375 59.112 124.315 56.3195 124.021 57.0488L124.021 57.0506C124.01 57.0322 123.999 57.0162 123.989 56.9973C123.568 56.1866 123.301 55.3003 123.203 54.3864C123.192 54.3052 123.183 54.2194 123.173 54.1348C124.53 53.1867 125.642 51.9119 126.413 50.4208C127.184 48.9297 127.59 47.2673 127.598 45.5775C127.597 45.1327 127.568 44.6884 127.511 44.2474C127.548 44.2233 127.587 44.2021 127.628 44.1839C127.712 44.1461 127.691 44.1153 127.629 44.0832C127.65 44.0717 127.671 44.0595 127.693 44.0501C127.805 43.9997 127.73 43.9616 127.621 43.9162L127.628 43.9128C127.781 43.8442 127.587 43.7987 127.431 43.7261C127.423 43.6792 127.415 43.6322 127.406 43.5855C127.441 43.4962 127.462 43.402 127.469 43.3062C127.482 43.3132 127.495 43.3209 127.51 43.3275C127.547 43.1528 127.546 42.9715 127.507 42.7973C127.497 42.8327 127.485 42.8674 127.471 42.9014C127.481 42.7434 127.45 42.5856 127.38 42.4445C127.31 42.3034 127.205 42.1841 127.076 42.099C127.068 42.092 127.06 42.0845 127.052 42.0774L127.34 39.0366C131.588 38.8296 132.333 31.3784 131.365 30.9644C130.396 30.5504 131.365 29.6535 131.365 27.8597C131.365 26.0659 128.16 24.0651 128.16 24.0651C128.16 24.0651 126.818 24.755 124.731 21.3054C122.644 17.8558 114.967 17.3038 114.445 18.2007C113.924 19.0976 110.495 20.2705 106.023 21.5814C101.551 22.8922 102.371 28.3427 103.116 29.5156C103.73 30.4852 104.09 31.6025 104.16 32.7582C104.16 33.4481 105.576 36.3458 105.576 36.3458C105.129 37.3499 106.266 42.8506 106.603 44.414C106.597 44.462 106.592 44.5099 106.587 44.5581C106.584 44.5629 106.58 44.5669 106.578 44.5717C106.562 44.5969 106.547 44.6232 106.534 44.6503C106.462 44.8123 106.438 44.9928 106.465 45.1689C106.441 45.3613 106.467 45.557 106.541 45.7355C106.566 47.2084 106.897 48.6586 107.51 49.9891C108.124 51.3195 109.006 52.4995 110.098 53.45C110.103 53.5441 110.108 53.6388 110.113 53.7357C110.176 55.0126 110.211 56.5228 110.146 57.9679C110.142 58.0418 110.137 58.1142 110.133 58.1878C109.887 58.2392 109.655 58.3496 109.458 58.5102C109.26 58.6707 109.102 58.8769 108.996 59.112C108.575 59.9471 106.129 61.235 106.129 61.235C106.129 61.235 101.849 61.4383 101.442 62.2517C101.034 63.0651 94.8516 65.7763 94.8516 65.7763C94.8516 65.7763 91.5905 67.7419 92.0661 69.9787C92.3146 71.1475 91.617 72.9633 90.8943 74.4315C89.3825 73.8405 87.8082 73.4358 86.2043 73.2259L89.6677 76.6417C89.5952 76.7585 89.5524 76.8246 89.5524 76.8246L87.5822 84.0094C87.5822 84.0094 86.9028 86.5173 86.2235 87.1273C85.5441 87.7373 86.8349 93.2953 86.8349 93.2953C86.8349 93.2953 86.0876 97.2267 85.4761 98.2434C84.8647 99.2601 86.4273 101.768 86.4273 101.768L89.5524 109.088L97.8408 111.257C97.8408 111.257 98.3932 111.378 99.2857 111.575C99.2576 111.75 99.2289 111.924 99.1996 112.098C98.8001 114.429 98.2756 116.574 97.637 117.154C96.0745 118.578 96.1424 124.949 96.1424 124.949L96.2103 133.964C96.2103 133.964 96.7538 145.08 96.4821 145.487C96.3105 145.743 96.6548 146.162 97.563 146.538C97.537 146.706 97.5115 146.875 97.4875 147.048C97.2321 148.892 97.118 150.996 97.705 151.926C97.9599 152.429 98.0993 152.985 98.1126 153.553C98.1126 154.434 99.4034 156.264 99.4034 156.264C99.4034 156.264 98.3843 163.788 100.083 166.363C101.781 168.939 103.208 173.616 102.393 174.7C102.393 174.7 100.966 177.886 101.645 179.309C102.325 180.733 101.645 181.546 100.762 181.885C99.879 182.224 99.9551 185.003 99.9551 185.003L101.577 198.22C101.577 198.22 102.461 200.932 101.713 201.88C100.966 202.829 100.966 207.574 102.121 209.201C103.276 210.828 100.49 213.81 100.49 213.81C100.49 213.81 98.792 216.318 101.509 217.131C101.509 217.131 102.053 217.267 101.034 218.351C100.015 219.436 99.811 220.791 100.49 221.266C100.631 221.353 100.779 221.428 100.931 221.492C100.906 221.652 100.879 221.819 100.846 221.995C100.586 223.41 100.094 225.254 99.1996 226.146C97.4668 227.976 95.9714 230.031 94.751 232.257C93.8189 234.079 93.4113 235.785 94.4439 236.584C96.8897 238.482 100.015 239.092 101.849 238.347C103.683 237.601 106.265 235.297 106.265 235.297L106.877 232.653C106.877 232.653 106.469 231.026 108.507 230.416C110.545 229.806 112.447 227.637 112.447 227.637V224.124C112.941 223.833 113.417 223.512 113.874 223.164C113.874 223.164 114.825 219.707 113.874 218.555C112.923 217.402 112.583 216.996 113.806 216.25C115.029 215.504 115.195 213.878 114.298 212.454C113.399 211.031 111.972 208.93 113.195 205.947C114.418 202.965 114.866 193.815 114.866 193.815C114.866 193.815 114.295 187.579 114.866 186.155C115.437 184.732 114.214 181.885 114.214 181.885C114.214 181.885 114.622 178.361 115.369 176.734C116.116 175.107 116.728 166.499 116.728 166.499C116.728 166.499 118.086 162.839 118.086 160.466C118.086 158.094 115.98 152.4 119.105 150.909C119.105 150.909 120.464 152.129 119.921 157.01C119.921 157.01 121.483 162.703 121.483 164.465C121.483 166.228 122.638 172.599 122.638 172.599C122.638 172.599 122.774 174.633 123.25 175.378C123.725 176.124 123.25 178.157 123.25 178.157C123.25 178.157 125.016 179.852 124.54 180.936C124.065 182.021 124.622 184.466 124.622 184.466L124.201 199.644C124.201 199.644 122.978 206.151 125.831 210.082C125.831 210.082 124.812 215.843 124.201 216.25C123.589 216.657 126.443 220.181 126.443 220.181C126.443 220.181 125.652 222.465 127.258 222.577V226.349C127.816 227.365 128.581 228.244 129.5 228.925C130.995 230.01 130.383 233.738 130.383 233.738C130.383 233.738 132.285 238.482 137.313 237.466C142.34 236.449 143.02 235.974 142.748 234.28C142.65 233.662 142.433 232.558 142.12 231.306C141.579 229.129 140.75 226.501 139.759 225.205C138.196 223.164 136.905 218.894 136.905 218.894C136.905 218.894 136.294 217.47 136.905 216.996C137.517 216.521 137.245 215.64 137.245 215.64C137.245 215.64 137.84 213.878 137.305 212.793C136.769 211.709 138.332 209.472 138.332 209.472L137.856 199.034L138.332 183.851C138.332 183.851 136.226 181.343 137.109 179.852C137.992 178.361 136.09 176.259 136.09 176.259C136.09 176.259 135.886 176.192 136.43 174.497C136.755 173.498 136.706 172.411 136.294 171.447C136.294 171.447 135.139 167.244 137.177 164.059C137.177 164.059 138.06 159.856 138.332 157.687C138.519 156.18 139.693 150.549 140.392 147.255C140.431 147.068 140.469 146.89 140.505 146.72C141.511 146.776 142.272 146.842 142.272 146.842C142.272 146.842 140.71 135.659 142.272 133.354C143.835 131.049 141.049 113.426 141.049 113.426C141.049 113.426 140.384 110.346 139.973 107.204C139.95 107.025 139.928 106.846 139.907 106.667C141.168 106.563 142.434 106.534 143.699 106.581C146.96 106.784 150.153 105.496 150.221 104.208C150.289 102.92 152.055 97.8368 152.327 96.6845C152.599 95.5322 152.803 91.6008 152.327 90.6519Z" fill="url(#paint0_linear_30_214)"/>
<path d="M112.685 221.409V227.685C112.685 227.685 110.852 229.845 108.888 230.452C106.925 231.06 107.317 232.679 107.317 232.679L106.728 235.311C106.728 235.311 104.241 237.606 102.473 238.348C100.706 239.091 97.6943 238.483 95.3376 236.594C94.3426 235.797 94.7353 234.099 95.6335 232.285C96.8037 230.076 98.2443 228.031 99.92 226.201C100.782 225.313 101.255 223.477 101.507 222.068C101.693 221.013 101.753 220.195 101.753 220.195L112.685 221.409Z" fill="#4C495A"/>
<path opacity="0.1" d="M112.685 226.093V227.685C112.685 227.685 110.852 229.845 108.888 230.452C106.925 231.06 107.317 232.679 107.317 232.679L106.728 235.311C106.728 235.311 104.241 237.606 102.473 238.348C100.706 239.091 97.6943 238.483 95.3376 236.594C94.3426 235.797 94.7353 234.099 95.6335 232.285C95.5916 234.191 96.1389 236.332 98.8072 236.256C101.687 236.162 104.462 235.122 106.728 233.287C106.728 233.287 106.663 228.833 109.674 227.82C110.775 227.446 111.796 226.86 112.685 226.093Z" fill="black"/>
<path d="M136.645 237.471C131.8 238.483 129.967 233.759 129.967 233.759C129.967 233.759 130.557 230.047 129.116 228.968C128.226 228.283 127.489 227.408 126.956 226.403V220.195L132.848 215.875L136.037 218.785L136.252 218.98C136.252 218.98 137.496 223.231 139.001 225.264C139.957 226.554 140.756 229.17 141.277 231.338C141.578 232.585 141.787 233.684 141.882 234.299C142.144 235.986 141.489 236.459 136.645 237.471Z" fill="#4C495A"/>
<path opacity="0.1" d="M136.645 237.471C131.8 238.483 129.967 233.759 129.967 233.759C129.967 233.759 130.557 230.047 129.116 228.968C128.226 228.283 127.489 227.408 126.956 226.403V223.998C127.891 225.016 129.653 226.986 130.033 227.82C130.557 228.968 130.622 233.152 133.044 233.894C135.466 234.636 140.18 235.311 140.572 233.422C140.736 232.704 140.972 232.005 141.277 231.338C141.578 232.585 141.787 233.684 141.882 234.299C142.144 235.986 141.489 236.459 136.645 237.471Z" fill="black"/>
<path opacity="0.1" d="M101.753 220.195L112.685 221.409V224.727C111.452 225.48 109.684 226.279 108.692 225.458C107.226 224.249 102.866 222.713 101.507 222.068C101.693 221.012 101.753 220.195 101.753 220.195Z" fill="black"/>
<path opacity="0.1" d="M136.252 219.52C134.746 218.98 132.062 221.342 128.527 222.826C128.036 223.065 127.499 223.189 126.956 223.188V220.195L132.848 215.875L136.037 218.785C136.086 219.037 136.158 219.282 136.252 219.52Z" fill="black"/>
<path d="M140.114 145.218C140.114 145.218 139.907 146.212 139.611 147.653C138.938 150.933 137.807 156.54 137.627 158.04C137.365 160.2 136.514 164.384 136.514 164.384C134.55 167.556 135.663 171.74 135.663 171.74C136.061 172.703 136.107 173.781 135.794 174.777C135.27 176.464 135.466 176.531 135.466 176.531C135.466 176.531 137.299 178.624 136.448 180.108C135.597 181.593 137.627 184.09 137.627 184.09L137.168 199.207L137.627 209.599C137.627 209.599 136.121 211.826 136.637 212.906C137.153 213.986 136.579 215.741 136.579 215.741C136.579 215.741 136.841 216.618 136.252 217.09C135.663 217.563 136.252 218.98 136.252 218.98C134.746 218.44 132.062 220.802 128.527 222.287C124.992 223.771 126.171 220.262 126.171 220.262C126.171 220.262 123.421 216.753 124.01 216.348C124.599 215.943 125.581 210.207 125.581 210.207C122.832 206.293 124.01 199.814 124.01 199.814L124.416 184.703C124.416 184.703 123.879 182.268 124.338 181.188C124.796 180.108 123.094 178.421 123.094 178.421C123.094 178.421 123.552 176.397 123.094 175.654C122.636 174.912 122.505 172.887 122.505 172.887C122.505 172.887 121.392 166.544 121.392 164.789C121.392 163.034 119.886 157.366 119.886 157.366C120.41 152.507 119.101 151.292 119.101 151.292C116.089 152.777 118.119 158.445 118.119 160.807C118.119 163.169 116.809 166.814 116.809 166.814C116.809 166.814 116.22 175.384 115.5 177.004C114.78 178.624 114.387 182.133 114.387 182.133C114.387 182.133 115.566 184.967 115.016 186.384C114.466 187.802 115.016 194.01 115.016 194.01C115.016 194.01 114.584 203.121 113.405 206.09C112.227 209.06 113.602 211.152 114.468 212.569C115.333 213.986 115.173 215.606 113.994 216.348C112.816 217.09 113.143 217.495 114.06 218.642C114.976 219.79 114.06 223.231 114.06 223.231C114.06 223.231 110.329 226.268 108.692 224.919C107.055 223.569 101.818 221.814 101.164 221.342C100.509 220.869 100.706 219.52 101.687 218.44C102.669 217.36 102.146 217.225 102.146 217.225C99.5272 216.415 101.164 213.918 101.164 213.918C101.164 213.918 103.848 210.949 102.735 209.329C101.622 207.71 101.622 202.986 102.342 202.041C103.062 201.096 102.211 198.397 102.211 198.397L100.648 185.237C100.648 185.237 100.575 182.47 101.426 182.133C102.277 181.795 102.931 180.986 102.277 179.568C101.622 178.151 102.997 174.979 102.997 174.979C103.782 173.9 102.408 169.243 100.771 166.679C99.1344 164.114 100.116 156.623 100.116 156.623C100.116 156.623 98.8726 154.801 98.8726 153.924C98.8603 153.361 98.7261 152.807 98.4798 152.304C97.9142 151.378 98.0242 149.284 98.2703 147.448C98.5086 145.672 98.8726 144.138 98.8726 144.138L140.114 145.218Z" fill="#5F5D7E"/>
<path d="M127.283 68.757L114.387 71.8614C114.387 71.8614 108.037 66.3276 109.608 63.3582C110.148 62.3378 110.386 60.5967 110.467 58.7557C110.53 57.3169 110.496 55.8133 110.436 54.5419C110.344 52.7036 110.198 51.3458 110.198 51.3458C110.198 51.3458 123.421 43.6524 122.963 51.3458C122.87 52.6269 122.899 53.9144 123.049 55.1897C123.143 56.0972 123.399 56.9787 123.806 57.7893C124.513 59.0877 125.385 59.1066 125.385 59.1066L127.283 68.757Z" fill="#FDC2CC"/>
<path opacity="0.1" d="M123.049 55.1897C121.186 56.568 118.924 57.2542 116.633 57.1366C114.342 57.0189 112.158 56.1042 110.436 54.5419C110.344 52.7036 110.198 51.3458 110.198 51.3458C110.198 51.3458 123.421 43.6524 122.963 51.3458C122.87 52.6269 122.899 53.9144 123.049 55.1897Z" fill="black"/>
<path d="M117.137 56.8797C122.741 56.8797 127.283 52.1965 127.283 46.4195C127.283 40.6424 122.741 35.9592 117.137 35.9592C111.533 35.9592 106.99 40.6424 106.99 46.4195C106.99 52.1965 111.533 56.8797 117.137 56.8797Z" fill="#FDC2CC"/>
<path opacity="0.1" d="M127.283 68.7571L114.387 71.8614C114.387 71.8614 108.037 66.3276 109.608 63.3582C110.148 62.3378 110.386 60.5967 110.467 58.7557C110.752 60.3566 111.586 61.7985 112.816 62.8183C115.762 64.8429 115.304 67.3399 115.304 67.3399L120.606 67.1374C120.279 64.9104 122.243 63.6956 122.897 63.4257C123.552 63.1558 123.225 61.941 123.225 61.941L123.806 57.7893C124.513 59.0877 125.385 59.1066 125.385 59.1066L127.283 68.7571Z" fill="black"/>
<path opacity="0.1" d="M140.114 145.218C140.114 145.218 139.907 146.212 139.611 147.653C138.187 147.575 136.304 147.518 135.466 147.715C134.026 148.053 128.265 148.188 128.265 148.188L113.995 148.709V148.255C112.353 148.269 110.714 148.381 109.085 148.592C106.663 148.93 102.866 148.458 100.444 148.053C99.6982 147.942 98.9684 147.739 98.2703 147.448C98.5086 145.672 98.8726 144.138 98.8726 144.138L140.114 145.218Z" fill="black"/>
<path d="M139.001 102.365C138.794 103.626 138.946 105.715 139.208 107.777C139.604 110.906 140.245 113.972 140.245 113.972C140.245 113.972 142.929 131.519 141.423 133.813C139.918 136.108 141.423 147.243 141.423 147.243C141.423 147.243 136.907 146.838 135.466 147.175C134.026 147.513 128.265 147.648 128.265 147.648L113.995 148.169V147.715C112.353 147.729 110.714 147.841 109.085 148.053C106.663 148.39 102.866 147.918 100.444 147.513C98.0216 147.108 97.0397 146.298 97.3015 145.893C97.5634 145.488 97.0397 134.421 97.0397 134.421L96.9742 125.445C96.9742 125.445 96.9087 119.101 98.4144 117.684C99.0297 117.106 99.5351 114.971 99.92 112.65C100.473 109.289 100.771 105.537 100.771 105.537L90.8207 78.0701L90.6243 77.5302C90.6243 77.5302 93.5047 72.9412 93.0464 70.7142C92.5882 68.4872 95.7304 66.5301 95.7304 66.5301C95.7304 66.5301 101.688 63.8307 102.08 63.0209C102.473 62.211 106.597 62.0086 106.597 62.0086C106.597 62.0086 108.954 60.7264 109.36 59.8949C109.459 59.6627 109.61 59.4581 109.8 59.298C109.991 59.1379 110.216 59.027 110.457 58.9744C110.734 60.595 111.573 62.0567 112.816 63.0884C115.762 65.1129 115.304 67.6099 115.304 67.6099L120.606 67.4074C120.279 65.1804 122.243 63.9657 122.897 63.6957C123.552 63.4258 123.225 62.2111 123.225 62.2111L123.838 57.8407C124.12 57.1145 126.105 59.8949 126.105 59.8949C126.105 59.8949 131.146 61.6712 131.473 61.8061C131.8 61.9411 136.055 63.2908 136.055 63.2908C136.055 63.2908 141.293 66.8001 141.293 67.6774C141.293 68.5547 144.173 73.2787 144.173 73.2787C144.173 73.2787 144.139 73.4676 144.076 73.8132C143.411 77.5329 139.481 99.463 139.001 102.365Z" fill="#F95738"/>
<path d="M118.053 91.4322C118.053 91.4322 106.728 88.3279 105.615 87.5855C104.502 86.8432 97.9561 91.1623 105.943 97.0335C105.943 97.0335 115.708 99.1256 118.321 97.0335C120.934 94.9415 118.053 91.4322 118.053 91.4322Z" fill="#FDC2CC"/>
<path opacity="0.1" d="M142.536 72.9412L143.911 73.0086L147.97 84.2113C147.97 84.2113 150.392 90.0825 150.85 91.0273C151.308 91.9721 151.112 95.8862 150.85 97.0335C150.588 98.1808 148.886 103.242 148.821 104.524C148.755 105.807 145.679 107.089 142.536 106.886C139.394 106.684 132.062 107.696 132.062 107.696C132.062 107.696 124.232 106.853 119.428 109.383C119.428 109.383 116.351 102.837 116.678 90.6224C116.678 90.6224 122.112 90.2849 123.487 90.8248C124.861 91.3647 131.539 92.9169 132.39 92.1071C133.241 91.2972 137.103 93.5917 137.103 93.5917C137.299 93.1467 137.401 92.6635 137.401 92.1745C137.401 91.6856 137.299 91.2023 137.103 90.7573C136.448 89.1377 135.335 84.0763 136.776 82.4566C138.216 80.837 142.536 72.9412 142.536 72.9412Z" fill="black"/>
<path opacity="0.1" d="M139.208 107.777C135.959 108.004 132.324 108.506 132.324 108.506C132.324 108.506 124.495 107.661 119.69 110.193C119.69 110.193 116.613 103.647 116.94 91.4322C116.94 91.4322 122.374 91.0948 123.748 91.6346C125.123 92.1745 131.8 93.7267 132.651 92.9169C133.502 92.107 137.365 94.4016 137.365 94.4016C137.561 93.9566 137.663 93.4733 137.663 92.9844C137.663 92.4954 137.561 92.0122 137.365 91.5672C136.71 89.9475 135.597 84.8861 137.037 83.2664C138.478 81.6468 142.798 73.751 142.798 73.751L144.076 73.8131C143.411 77.5329 139.481 99.463 139.001 102.365C138.794 103.625 138.946 105.715 139.208 107.777Z" fill="black"/>
<path d="M142.798 73.2112L144.173 73.2787L148.232 84.4813C148.232 84.4813 150.654 90.3525 151.112 91.2973C151.57 92.2421 151.374 96.1563 151.112 97.3035C150.85 98.4508 149.148 103.512 149.083 104.794C149.017 106.077 145.94 107.359 142.798 107.156C139.656 106.954 132.324 107.966 132.324 107.966C132.324 107.966 124.494 107.123 119.69 109.653C119.69 109.653 116.613 103.107 116.94 90.8924C116.94 90.8924 122.374 90.555 123.748 91.0948C125.123 91.6347 131.8 93.1869 132.651 92.3771C133.502 91.5672 137.365 93.8617 137.365 93.8617C137.561 93.4168 137.663 92.9335 137.663 92.4446C137.663 91.9556 137.561 91.4724 137.365 91.0274C136.71 89.4077 135.597 84.3463 137.037 82.7266C138.478 81.107 142.798 73.2112 142.798 73.2112Z" fill="#F95738"/>
<path d="M128.968 97.9993L130.601 99.042L139.704 83.8869L138.07 82.8442L128.968 97.9993Z" fill="#DFE6F5"/>
<path d="M144.371 81.8346C145.98 79.1562 145.807 76.042 143.984 74.8788C142.162 73.7156 139.381 74.9439 137.772 77.6223C136.163 80.3007 136.336 83.4149 138.159 84.5781C139.981 85.7413 142.762 84.513 144.371 81.8346Z" fill="#DFE6F5"/>
<path opacity="0.1" d="M143.44 81.24C144.595 79.3175 144.47 77.0821 143.162 76.2472C141.854 75.4122 139.858 76.2939 138.703 78.2165C137.548 80.139 137.673 82.3744 138.981 83.2093C140.289 84.0442 142.285 83.1626 143.44 81.24Z" fill="black"/>
<path d="M124.315 105.745L125.949 106.788L131.613 97.3582L129.979 96.3156L124.315 105.745Z" fill="#53526B"/>
<path d="M114.715 106.414L118.708 105.267C118.708 105.267 138.412 105.807 131.8 97.4383C131.8 97.4383 128.331 93.9966 121.064 96.7635C113.798 99.5304 111.769 99.8678 111.769 99.8678L114.715 106.414Z" fill="#FDC2CC"/>
<path opacity="0.1" d="M111.769 71.1192C112.203 71.1192 112.554 70.7566 112.554 70.3093C112.554 69.8621 112.203 69.4995 111.769 69.4995C111.335 69.4995 110.983 69.8621 110.983 70.3093C110.983 70.7566 111.335 71.1192 111.769 71.1192Z" fill="black"/>
<path opacity="0.1" d="M125.254 70.6468C125.688 70.6468 126.04 70.2842 126.04 69.8369C126.04 69.3897 125.688 69.0271 125.254 69.0271C124.82 69.0271 124.469 69.3897 124.469 69.8369C124.469 70.2842 124.82 70.6468 125.254 70.6468Z" fill="black"/>
<path d="M111.769 70.8491C112.203 70.8491 112.554 70.4866 112.554 70.0393C112.554 69.5921 112.203 69.2295 111.769 69.2295C111.335 69.2295 110.983 69.5921 110.983 70.0393C110.983 70.4866 111.335 70.8491 111.769 70.8491Z" fill="white"/>
<path opacity="0.1" d="M112.882 82.3216C113.315 82.3216 113.667 81.959 113.667 81.5117C113.667 81.0645 113.315 80.7019 112.882 80.7019C112.448 80.7019 112.096 81.0645 112.096 81.5117C112.096 81.959 112.448 82.3216 112.882 82.3216Z" fill="black"/>
<path opacity="0.1" d="M125.647 81.5117C126.081 81.5117 126.432 81.1492 126.432 80.7019C126.432 80.2547 126.081 79.8921 125.647 79.8921C125.213 79.8921 124.861 80.2547 124.861 80.7019C124.861 81.1492 125.213 81.5117 125.647 81.5117Z" fill="black"/>
<path d="M112.882 82.0518C113.315 82.0518 113.667 81.6892 113.667 81.242C113.667 80.7947 113.315 80.4321 112.882 80.4321C112.448 80.4321 112.096 80.7947 112.096 81.242C112.096 81.6892 112.448 82.0518 112.882 82.0518Z" fill="white"/>
<path opacity="0.1" d="M125.32 120.591C125.753 120.591 126.105 120.228 126.105 119.781C126.105 119.334 125.753 118.971 125.32 118.971C124.886 118.971 124.534 119.334 124.534 119.781C124.534 120.228 124.886 120.591 125.32 120.591Z" fill="black"/>
<path opacity="0.1" d="M114.981 120.591C115.415 120.591 115.767 120.228 115.767 119.781C115.767 119.334 115.415 118.971 114.981 118.971C114.547 118.971 114.195 119.334 114.195 119.781C114.195 120.228 114.547 120.591 114.981 120.591Z" fill="black"/>
<path d="M125.32 120.321C125.753 120.321 126.105 119.958 126.105 119.511C126.105 119.063 125.753 118.701 125.32 118.701C124.886 118.701 124.534 119.063 124.534 119.511C124.534 119.958 124.886 120.321 125.32 120.321Z" fill="white"/>
<path opacity="0.1" d="M115.767 134.15C116.2 134.15 116.552 133.788 116.552 133.341C116.552 132.893 116.2 132.531 115.767 132.531C115.333 132.531 114.981 132.893 114.981 133.341C114.981 133.788 115.333 134.15 115.767 134.15Z" fill="black"/>
<path opacity="0.1" d="M125.647 133.341C126.081 133.341 126.432 132.978 126.432 132.531C126.432 132.084 126.081 131.721 125.647 131.721C125.213 131.721 124.861 132.084 124.861 132.531C124.861 132.978 125.213 133.341 125.647 133.341Z" fill="black"/>
<path d="M115.767 133.881C116.2 133.881 116.552 133.518 116.552 133.071C116.552 132.624 116.2 132.261 115.767 132.261C115.333 132.261 114.981 132.624 114.981 133.071C114.981 133.518 115.333 133.881 115.767 133.881Z" fill="white"/>
<path d="M114.981 120.321C115.415 120.321 115.767 119.958 115.767 119.511C115.767 119.063 115.415 118.701 114.981 118.701C114.547 118.701 114.195 119.063 114.195 119.511C114.195 119.958 114.547 120.321 114.981 120.321Z" fill="white"/>
<path d="M125.647 133.071C126.081 133.071 126.432 132.708 126.432 132.261C126.432 131.814 126.081 131.451 125.647 131.451C125.213 131.451 124.861 131.814 124.861 132.261C124.861 132.708 125.213 133.071 125.647 133.071Z" fill="white"/>
<path d="M125.254 70.3767C125.688 70.3767 126.04 70.0142 126.04 69.5669C126.04 69.1197 125.688 68.7571 125.254 68.7571C124.82 68.7571 124.469 69.1197 124.469 69.5669C124.469 70.0142 124.82 70.3767 125.254 70.3767Z" fill="white"/>
<path d="M125.647 81.242C126.081 81.242 126.432 80.8794 126.432 80.4321C126.432 79.9849 126.081 79.6223 125.647 79.6223C125.213 79.6223 124.861 79.9849 124.861 80.4321C124.861 80.8794 125.213 81.242 125.647 81.242Z" fill="white"/>
<path opacity="0.1" d="M126.825 108.844C126.825 108.844 126.956 127.335 127.349 130.641C127.349 130.641 127.492 109.715 126.825 108.844Z" fill="black"/>
<path opacity="0.1" d="M130.164 117.414C129.894 117.414 135.532 139.077 135.794 140.629C136.055 142.181 131.735 117.414 130.164 117.414Z" fill="black"/>
<path opacity="0.1" d="M134.615 113.905C134.615 114.107 137.758 125.647 139.329 126.255C140.9 126.862 134.615 113.905 134.615 113.905Z" fill="black"/>
<path opacity="0.1" d="M146.988 91.4321C146.988 91.4321 140.311 91.7389 140.114 92.7328C139.918 93.7266 146.988 91.4321 146.988 91.4321Z" fill="black"/>
<path opacity="0.1" d="M135.204 179.433C135.204 179.433 130.426 181.525 131.146 181.66C131.866 181.795 135.204 179.433 135.204 179.433Z" fill="black"/>
<path opacity="0.1" d="M125.32 176.329C125.133 175.897 128.527 178.084 128.527 178.353C128.527 178.623 125.581 176.936 125.32 176.329Z" fill="black"/>
<path opacity="0.1" d="M129.771 183.415C129.771 183.415 133.502 183.221 133.764 184.701C134.026 186.182 129.771 183.415 129.771 183.415Z" fill="black"/>
<path opacity="0.1" d="M102.931 183.407C102.931 183.407 106.99 182.588 107.317 183.407C107.645 184.225 102.931 183.407 102.931 183.407Z" fill="black"/>
<path opacity="0.1" d="M104.437 208.857C104.437 208.857 104.703 212.299 103.719 213.108C102.735 213.918 104.437 208.857 104.437 208.857Z" fill="black"/>
<path opacity="0.1" d="M103.941 216.145C105.222 216.28 111.965 215.066 111.9 216.145C111.834 217.225 103.941 216.145 103.941 216.145Z" fill="black"/>
<path opacity="0.1" d="M134.877 211.961C134.877 211.961 132.578 211.597 133.138 213.196L134.877 211.961Z" fill="black"/>
<path opacity="0.1" d="M92.1299 77.2603H90.8861L88.9877 84.4138C88.9877 84.4138 88.3331 86.9108 87.6785 87.5181C87.0238 88.1255 88.2676 93.6593 88.2676 93.6593C88.2676 93.6593 87.5475 97.5735 86.9584 98.5858C86.3692 99.5981 87.8749 102.095 87.8749 102.095L90.8861 109.383L98.8726 111.543C98.8726 111.543 112.947 114.715 113.602 115.187C114.256 115.66 114.846 114.985 115.304 110.598C115.762 106.212 117.006 97.7085 117.988 97.3036C117.988 97.3036 110.132 98.1809 109.478 98.0459C108.823 97.9109 105.681 98.1134 105.681 98.1134C105.681 98.1134 101.557 97.8434 100.902 98.2484C100.247 98.6533 101.753 96.2882 101.753 96.2882C102.029 95.2053 102.029 94.0674 101.753 92.9845C101.295 91.1624 101.033 70.5118 92.1299 77.2603Z" fill="black"/>
<path opacity="0.1" d="M117.726 98.1133C116.744 98.5183 115.5 107.021 115.042 111.408C114.584 115.795 113.995 116.469 113.34 115.997C112.808 115.614 103.426 113.449 99.92 112.65C100.472 109.289 100.771 105.537 100.771 105.537L90.8207 78.0702H91.8681C100.771 71.3216 101.033 91.9722 101.491 93.7943C101.767 94.8773 101.767 96.0153 101.491 97.0984C101.491 97.0984 99.9855 99.4631 100.64 99.0581C101.295 98.6532 105.419 98.9232 105.419 98.9232C105.419 98.9232 108.561 98.7207 109.216 98.8557C109.87 98.9907 117.726 98.1133 117.726 98.1133Z" fill="black"/>
<path d="M91.8681 77.5301H90.6243L88.7259 84.6836C88.7259 84.6836 88.0712 87.1805 87.4166 87.7879C86.762 88.3953 88.0058 93.9291 88.0058 93.9291C88.0058 93.9291 87.2857 97.8433 86.6965 98.8555C86.1074 99.8678 87.613 102.365 87.613 102.365L90.6243 109.653L98.6107 111.813C98.6107 111.813 112.685 114.985 113.34 115.457C113.995 115.929 114.584 115.255 115.042 110.868C115.5 106.481 116.744 97.9783 117.726 97.5734C117.726 97.5734 109.87 98.4507 109.216 98.3157C108.561 98.1807 105.419 98.3832 105.419 98.3832C105.419 98.3832 101.295 98.1132 100.64 98.5182C99.9855 98.9231 101.491 96.558 101.491 96.558C101.767 95.4751 101.767 94.3372 101.491 93.2543C101.033 91.4321 100.771 70.7816 91.8681 77.5301Z" fill="#F95738"/>
<path opacity="0.1" d="M96.1232 101.96C96.1232 101.96 92.5227 108.978 91.8681 108.169C91.2135 107.359 96.1232 101.96 96.1232 101.96Z" fill="black"/>
<path opacity="0.1" d="M92.3918 97.9634C92.3918 97.9634 89.0532 100.813 90.6243 101.555C92.1954 102.297 92.3918 97.9634 92.3918 97.9634Z" fill="black"/>
<path opacity="0.1" d="M95.534 94.469C95.7959 94.5365 100.378 95.4747 100.444 95.8829C100.509 96.2911 95.534 94.469 95.534 94.469Z" fill="black"/>
<path opacity="0.1" d="M127.312 45.032C127.17 45.0836 127.048 45.1829 126.967 45.3141C126.886 45.4452 126.85 45.6006 126.865 45.7554C126.597 45.9984 126.223 45.7122 126.006 45.4018C125.786 45.0941 125.537 44.7135 125.204 44.7566C125.046 44.8086 124.893 44.8745 124.746 44.9537C124.222 45.1265 123.78 44.4921 123.487 43.936C122.976 42.9615 122.465 41.9879 121.955 41.0152C120.931 41.628 119.721 40.9855 118.705 40.3512C117.689 39.7168 116.479 39.0717 115.453 39.6844C113.947 40.5806 113.892 43.5689 112.332 44.3058C111.829 44.5434 111.245 44.4921 110.779 44.8187C110.318 45.1427 110.069 45.7662 109.862 46.3628C109.786 46.7024 109.606 47.0079 109.349 47.2347C109.186 47.3227 109.004 47.3681 108.82 47.367C108.358 47.448 107.882 47.3792 107.459 47.1699C107.237 47.0262 107.069 46.8088 106.984 46.5535C106.898 46.2983 106.899 46.0206 106.987 45.7662C107 45.7393 107.014 45.7131 107.029 45.6879C107.197 45.4789 107.348 45.2559 107.48 45.0212C107.637 44.592 107.412 44.0926 107.461 43.6283C107.542 42.8346 108.357 42.4162 108.496 41.6361C108.553 41.3311 108.493 41.0045 108.548 40.6967C108.556 40.6564 108.566 40.6167 108.579 40.5779L108.1 40.9181C108.637 40.2729 108.907 39.3767 109.3 38.5939C109.736 37.7367 110.336 36.9797 111.064 36.3687C111.793 35.7576 112.634 35.3052 113.536 35.0387C115.244 34.5258 117.048 34.6662 118.771 35.1008C120.409 35.5216 121.979 36.1883 123.429 37.0795C123.947 37.3659 124.407 37.7516 124.785 38.2159C125.102 38.6973 125.371 39.21 125.589 39.7465C126.097 40.8317 127.485 41.8358 126.38 41.987C125.461 42.1139 126.299 42.778 126.781 43.2261C126.889 43.3139 126.983 43.4197 127.058 43.5392C127.138 43.7099 127.175 43.8988 127.165 44.0881C127.155 44.2774 127.098 44.461 127.001 44.6217C126.815 44.8646 127.569 44.9132 127.312 45.032Z" fill="black"/>
<path d="M127.312 44.762C127.17 44.8136 127.048 44.9129 126.967 45.044C126.886 45.1752 126.85 45.3306 126.865 45.4854C126.597 45.7284 126.223 45.4422 126.006 45.1318C125.786 44.824 125.537 44.4434 125.204 44.4866C125.046 44.5386 124.893 44.6045 124.746 44.6837C124.222 44.8564 123.78 44.2221 123.487 43.666C122.976 42.6915 122.465 41.7179 121.955 40.7452C120.931 41.358 119.721 40.7155 118.705 40.0812C117.689 39.4468 116.479 38.8016 115.453 39.4144C113.947 40.3106 113.892 43.2989 112.332 44.0358C111.829 44.2734 111.245 44.2221 110.779 44.5487C110.318 44.8726 110.069 45.4962 109.862 46.0928C109.786 46.4324 109.606 46.7379 109.349 46.9647C109.186 47.0527 109.004 47.0981 108.82 47.097C108.358 47.178 107.882 47.1092 107.459 46.8999C107.237 46.7562 107.069 46.5388 106.984 46.2835C106.898 46.0283 106.899 45.7505 106.987 45.4962C107 45.4693 107.014 45.4431 107.029 45.4179C107.197 45.2089 107.348 44.9859 107.48 44.7512C107.637 44.322 107.412 43.8226 107.461 43.3583C107.542 42.5647 108.357 42.1462 108.496 41.3661C108.553 41.0611 108.493 40.7344 108.548 40.4267C108.556 40.3864 108.566 40.3467 108.579 40.3079L108.1 40.6481C108.637 40.0029 108.907 39.1067 109.3 38.3238C109.736 37.4667 110.336 36.7097 111.064 36.0987C111.793 35.4876 112.634 35.0352 113.536 34.7687C115.244 34.2558 117.048 34.3962 118.771 34.8308C120.409 35.2516 121.979 35.9183 123.429 36.8095C123.947 37.0959 124.407 37.4816 124.785 37.9459C125.102 38.4273 125.371 38.94 125.589 39.4765C126.097 40.5617 127.485 41.5658 126.38 41.717C125.461 41.8439 126.299 42.5079 126.781 42.956C126.889 43.0439 126.983 43.1497 127.058 43.2692C127.138 43.4399 127.175 43.6287 127.165 43.8181C127.155 44.0074 127.098 44.191 127.001 44.3516C126.815 44.5946 127.569 44.6432 127.312 44.762Z" fill="#865A61"/>
<path opacity="0.1" d="M126.781 42.9561L126.676 44.0925C126.676 44.0925 115.689 29.737 107.142 45.947C107.142 45.947 107.1 45.7499 107.029 45.4179C107.197 45.2089 107.348 44.9859 107.48 44.7512C107.637 44.322 107.412 43.8226 107.461 43.3583C107.542 42.5646 108.357 42.1462 108.496 41.3661C108.553 41.0611 108.493 40.7344 108.548 40.4267C108.556 40.3864 108.566 40.3467 108.579 40.3079L108.1 40.648C108.637 40.0029 108.907 39.1067 109.3 38.3238C109.736 37.4667 110.336 36.7097 111.064 36.0987C111.793 35.4876 112.634 35.0352 113.536 34.7687C115.244 34.2558 117.048 34.3962 118.771 34.8308C120.409 35.2516 121.979 35.9183 123.429 36.8095C123.947 37.0959 124.407 37.4816 124.785 37.9459C125.102 38.4273 125.371 38.94 125.589 39.4765C126.097 40.5617 127.485 41.5658 126.38 41.717C125.461 41.8439 126.299 42.508 126.781 42.9561Z" fill="black"/>
<g opacity="0.1">
<path opacity="0.1" d="M127.052 44.6149C126.997 44.6777 126.958 44.7525 126.936 44.8336C126.915 44.9146 126.912 44.9997 126.927 45.0822C126.66 45.3251 126.286 45.039 126.068 44.7286C125.848 44.4208 125.6 44.0402 125.267 44.0834C125.109 44.1353 124.956 44.2013 124.809 44.2805C124.285 44.4532 123.842 43.8188 123.549 43.2628C123.039 42.2883 122.528 41.3147 122.017 40.342C120.994 40.9548 119.784 40.3123 118.768 39.6779C117.752 39.0435 116.542 38.3984 115.516 39.0112C114.01 39.9074 113.955 42.8956 112.394 43.6326C111.892 43.8701 111.308 43.8188 110.842 44.1455C110.381 44.4694 110.132 45.093 109.925 45.6895C109.849 46.0291 109.669 46.3346 109.412 46.5615C109.249 46.6494 109.067 46.6948 108.883 46.6937C108.42 46.7748 107.944 46.7059 107.521 46.4967C107.268 46.3233 107.086 46.0587 107.011 45.7546C106.959 45.9964 106.98 46.2489 107.071 46.478C107.162 46.7072 107.32 46.9021 107.521 47.0366C107.944 47.2458 108.42 47.3147 108.883 47.2336C109.067 47.2347 109.249 47.1893 109.412 47.1013C109.669 46.8745 109.849 46.569 109.925 46.2294C110.132 45.6329 110.381 45.0093 110.842 44.6854C111.308 44.3587 111.892 44.41 112.394 44.1725C113.955 43.4355 114.01 40.4473 115.516 39.5511C116.542 38.9383 117.752 39.5834 118.768 40.2178C119.784 40.8522 120.994 41.4946 122.017 40.8819C122.528 41.8537 123.039 42.8273 123.549 43.8026C123.842 44.3587 124.285 44.9931 124.809 44.8203C124.956 44.7412 125.109 44.6752 125.267 44.6233C125.6 44.5801 125.848 44.9607 126.068 45.2684C126.286 45.5789 126.66 45.865 126.927 45.6221C126.913 45.4672 126.949 45.3118 127.03 45.1807C127.111 45.0496 127.233 44.9502 127.375 44.8986C127.579 44.8042 127.145 44.7537 127.052 44.6149Z" fill="black"/>
<path opacity="0.1" d="M126.195 41.918C126.275 41.8852 126.358 41.8636 126.443 41.8537C126.93 41.787 126.932 41.5543 126.739 41.2222C126.647 41.2732 126.546 41.3043 126.443 41.3138C125.917 41.3864 125.967 41.6349 126.195 41.918Z" fill="black"/>
<path opacity="0.1" d="M127.199 44.1792C127.235 44.0052 127.234 43.825 127.196 43.6514C127.173 43.759 127.127 43.8603 127.063 43.9485C126.981 44.0557 127.082 44.125 127.199 44.1792Z" fill="black"/>
<path opacity="0.1" d="M107.539 43.4016C107.534 43.4325 107.527 43.463 107.524 43.495C107.513 43.7381 107.53 43.9816 107.575 44.2206C107.606 43.9474 107.594 43.6708 107.539 43.4016Z" fill="black"/>
<path opacity="0.1" d="M108.602 40.1082C108.479 40.3488 108.332 40.5756 108.163 40.7848L108.585 40.4848C108.583 40.359 108.589 40.2332 108.602 40.1082Z" fill="black"/>
</g>
<path d="M107.141 45.6771C107.141 45.6771 105.561 38.3957 106.064 37.228C106.064 37.228 104.7 34.3429 104.7 33.656C104.633 32.5097 104.287 31.3992 103.694 30.4274C102.976 29.2597 102.186 23.833 106.495 22.5279C110.804 21.2227 114.108 20.0549 114.61 19.162C115.113 18.269 122.51 18.8185 124.521 22.2531C126.532 25.6877 127.825 25.0008 127.825 25.0008C127.825 25.0008 130.913 26.9928 130.913 28.7788C130.913 30.5648 129.979 31.4578 130.913 31.87C131.847 32.2821 131.129 39.7009 127.035 39.9069L126.676 43.8224C126.676 43.8224 115.688 29.4658 107.141 45.6771Z" fill="#F95738"/>
<path opacity="0.1" d="M107.612 23.9468C107.612 23.9468 106.663 29.683 108.397 31.6064L107.612 23.9468Z" fill="black"/>
<path opacity="0.1" d="M112.063 22.6309C112.063 22.6309 109.641 28.772 110.23 29.953L112.063 22.6309Z" fill="black"/>
<path opacity="0.1" d="M114.158 20.6736C114.158 20.6736 112.522 28.6706 113.307 29.3117L114.158 20.6736Z" fill="black"/>
<path opacity="0.1" d="M116.973 22.8333C116.973 22.8333 114.944 27.9622 115.762 28.6707L116.973 22.8333Z" fill="black"/>
<path opacity="0.1" d="M120.803 23.4407C120.803 23.4407 118.413 27.6248 118.904 28.3671L120.803 23.4407Z" fill="black"/>
<path opacity="0.1" d="M125.712 27.5234C125.712 27.5234 123.159 28.232 123.683 29.0756L125.712 27.5234Z" fill="black"/>
<path opacity="0.1" d="M128.134 31.8762C128.134 31.8762 125.843 33.0235 126.269 33.6308L128.134 31.8762Z" fill="black"/>
<path opacity="0.1" d="M106.064 37.2279C106.064 37.2279 120.698 31.0999 127.035 39.9069C127.035 39.9069 119.344 33.1653 106.064 37.2279Z" fill="black"/>
<path d="M100.776 87.5796L102.815 85.4531L108.58 91.3281L106.541 93.4549L101.239 88.0518L100.776 87.5796Z" fill="#53526B"/>
<path d="M87.3981 73.9473C87.3981 73.9473 96.323 74.7302 104.63 84.3687L101.167 87.9792L87.3981 73.9473Z" fill="#DFE6F5"/>
<path d="M114.168 91.1812C114.168 91.1812 105.59 87.9575 104.747 87.1866C103.904 86.4157 98.9454 90.9009 104.995 96.9979C104.995 96.9979 112.392 99.1703 114.371 96.9979C116.35 94.8254 114.168 91.1812 114.168 91.1812Z" fill="#FDC2CC"/>
<defs>
<linearGradient id="paint0_linear_30_214" x1="118.973" y1="238.656" x2="118.973" y2="17.8196" gradientUnits="userSpaceOnUse">
<stop stop-color="#808080" stop-opacity="0.25"/>
<stop offset="0.53514" stop-color="#808080" stop-opacity="0.12"/>
<stop offset="1" stop-color="#808080" stop-opacity="0.1"/>
</linearGradient>
</defs>
</svg>
