<svg width="300" height="241" viewBox="0 0 300 241" fill="none" xmlns="http://www.w3.org/2000/svg">
<g clip-path="url(#clip0_28_41)">
<path d="M195.291 238.004L139.092 141.075C139.076 140.838 138.999 140.608 138.869 140.406C138.738 140.204 138.557 140.036 138.342 139.917C138.095 139.782 137.814 139.717 137.53 139.729C137.521 139.729 137.512 139.729 137.503 139.729C137.494 139.729 137.484 139.729 137.475 139.729C137.091 139.712 136.714 139.838 136.424 140.08C136.135 140.322 135.954 140.662 135.92 141.029L76.3577 238.004C76.2584 238.168 76.1939 238.35 76.1679 238.538C76.1419 238.726 76.155 238.918 76.2063 239.101C76.2576 239.284 76.3461 239.456 76.4669 239.607C76.5877 239.758 76.7383 239.884 76.9102 239.979C77.082 240.074 77.2717 240.135 77.4685 240.16C77.6652 240.185 77.8651 240.172 78.0568 240.123C78.2485 240.074 78.4281 239.989 78.5855 239.873C78.7429 239.758 78.8749 239.614 78.9741 239.449L137.463 144.223L192.674 239.449C192.774 239.614 192.906 239.758 193.063 239.873C193.22 239.989 193.4 240.074 193.592 240.123C193.783 240.172 193.983 240.185 194.18 240.16C194.377 240.135 194.566 240.074 194.738 239.979C194.91 239.884 195.061 239.758 195.182 239.607C195.302 239.456 195.391 239.284 195.442 239.101C195.494 238.918 195.507 238.726 195.481 238.538C195.455 238.35 195.39 238.168 195.291 238.004Z" fill="#3F3D56"/>
<path d="M128.191 221.374L134.543 219.98L131.944 195.878L122.569 197.935L128.191 221.374Z" fill="#FFB6B6"/>
<path d="M133.102 209.731L124.062 211.714L121.171 206.311L121.008 206.119C119.725 204.614 119.014 202.737 118.988 200.795L111.475 181.782L110.86 181.503C110.385 181.287 109.964 180.976 109.624 180.591C109.284 180.207 109.034 179.757 108.89 179.273C108.747 178.789 108.713 178.281 108.79 177.783C108.868 177.285 109.056 176.808 109.342 176.385L108.547 174.373L86.1017 174.412L86.0793 174.406L58.5172 167.01L61.4112 150.507L69.1644 155.172C71.7192 155.014 115.483 152.443 119.526 161.826C123.126 170.181 128.314 184.455 132.033 194.958C132.218 195.429 132.449 195.883 132.721 196.315C133.3 197.167 133.639 198.147 133.707 199.161C133.751 199.602 133.839 200.039 133.97 200.464C135.515 204.883 133.161 209.614 133.137 209.661L133.102 209.731Z" fill="#2F2E41"/>
<path d="M126.045 219.359L128.11 218.905L135.421 213.999L140.495 216.187L140.495 216.187C142.937 215.651 145.502 216.065 147.625 217.338C149.748 218.611 151.256 220.639 151.816 222.975L151.885 223.262L128.226 228.454L126.045 219.359Z" fill="#2F2E41"/>
<path d="M32.2549 219.9C32.9007 213.175 37.0184 206.442 43.6227 204.057C41.2208 211.032 41.4753 218.595 44.3413 225.408C45.4565 228.032 46.9825 230.839 46.1071 233.544C45.5625 235.228 44.1363 236.547 42.5209 237.394C40.9054 238.241 39.0956 238.676 37.3084 239.104L36.9636 239.395C33.8993 233.311 31.609 226.625 32.2549 219.9Z" fill="#F0F0F0"/>
<path d="M43.6932 204.182C39.9445 208.47 37.7033 213.778 37.288 219.354C37.1764 220.553 37.2629 221.761 37.5445 222.934C37.8574 224.068 38.4821 225.101 39.3536 225.926C40.15 226.711 41.0598 227.426 41.6429 228.382C41.9338 228.876 42.1123 229.423 42.1666 229.988C42.221 230.552 42.15 231.121 41.9584 231.658C41.5172 233.006 40.5958 234.122 39.6551 235.184C38.6107 236.363 37.5063 237.571 37.097 239.104C37.0474 239.29 36.749 239.205 36.7986 239.02C37.5107 236.353 40.1415 234.77 41.3403 232.351C41.8997 231.222 42.1068 229.925 41.5081 228.77C40.9845 227.76 40.0471 227.022 39.2335 226.234C38.3709 225.441 37.7245 224.458 37.3506 223.371C37.0075 222.216 36.8725 221.013 36.9512 219.814C37.0836 217.112 37.6592 214.447 38.6569 211.917C39.7788 209.023 41.41 206.333 43.4799 203.965C43.6081 203.819 43.8205 204.037 43.6932 204.182L43.6932 204.182Z" fill="white"/>
<path d="M37.3113 217.551C36.3429 217.357 35.478 216.841 34.871 216.093C34.2641 215.346 33.9546 214.416 33.9978 213.471C34 213.432 34.0177 213.396 34.0472 213.37C34.0767 213.343 34.1157 213.329 34.1561 213.33C34.1964 213.331 34.2349 213.346 34.2634 213.373C34.292 213.401 34.3083 213.438 34.309 213.476C34.267 214.357 34.5554 215.222 35.1221 215.917C35.6888 216.612 36.4965 217.09 37.3993 217.265C37.5955 217.304 37.5064 217.589 37.3113 217.551H37.3113Z" fill="white"/>
<path d="M38.895 225.579C40.5972 224.534 41.8253 222.914 42.3344 221.042C42.3847 220.856 42.683 220.941 42.6328 221.126C42.0993 223.074 40.8176 224.757 39.0438 225.84C38.8746 225.943 38.7267 225.682 38.895 225.579H38.895Z" fill="white"/>
<path d="M40.0768 209.295C40.4352 209.445 40.8268 209.507 41.2165 209.476C41.6062 209.445 41.9817 209.322 42.3094 209.118C42.4771 209.013 42.6248 209.275 42.4582 209.38C42.095 209.603 41.6801 209.739 41.2497 209.774C40.8192 209.809 40.3863 209.743 39.9888 209.581C39.95 209.569 39.9175 209.543 39.898 209.508C39.8785 209.474 39.8733 209.434 39.8836 209.396C39.8955 209.358 39.9224 209.327 39.9586 209.308C39.9948 209.289 40.0373 209.285 40.0768 209.295H40.0768Z" fill="white"/>
<path d="M64.3785 215.395C64.2757 215.464 64.173 215.532 64.0702 215.603C62.6936 216.531 61.3981 217.565 60.1964 218.693C60.102 218.779 60.0078 218.867 59.9162 218.956C57.0514 221.704 54.7449 224.937 53.114 228.491C52.4664 229.906 51.9322 231.366 51.5161 232.858C50.9416 234.919 50.4901 237.197 49.2732 238.906C49.1484 239.086 49.012 239.258 48.8649 239.421L37.3616 239.775C37.335 239.763 37.3084 239.754 37.2817 239.742L36.8231 239.776C36.839 239.698 36.8571 239.617 36.873 239.539C36.882 239.493 36.8935 239.447 36.9025 239.402C36.9093 239.372 36.9163 239.341 36.9206 239.313C36.9228 239.303 36.9252 239.293 36.9275 239.286C36.9318 239.258 36.9389 239.232 36.9433 239.207C37.0437 238.754 37.1476 238.301 37.255 237.848C37.2549 237.845 37.2549 237.845 37.2574 237.843C38.041 234.382 39.2511 231.023 40.8621 227.835C40.9116 227.74 40.9608 227.643 41.0155 227.549C41.7636 226.136 42.6312 224.785 43.6095 223.508C44.1475 222.81 44.7222 222.139 45.3311 221.497C46.908 219.841 48.7473 218.433 50.7817 217.324C54.8375 215.113 59.5872 214.168 64.0393 215.305C64.1531 215.335 64.2645 215.364 64.3785 215.395Z" fill="#F0F0F0"/>
<path d="M64.3573 215.536C58.6657 216.8 53.5352 219.748 49.6945 223.96C48.8509 224.853 48.1596 225.868 47.6462 226.966C47.1823 228.052 47.0307 229.237 47.2073 230.398C47.3492 231.483 47.6257 232.578 47.4894 233.677C47.4108 234.239 47.209 234.779 46.8972 235.261C46.5853 235.743 46.1705 236.156 45.6799 236.474C44.479 237.297 43.0407 237.657 41.6215 237.963C40.0456 238.303 38.4032 238.632 37.1117 239.62C36.9552 239.74 36.7701 239.5 36.9264 239.381C39.1734 237.662 42.2704 237.913 44.7501 236.672C45.9072 236.093 46.8888 235.176 47.1377 233.909C47.3553 232.801 47.0712 231.672 46.9175 230.575C46.7279 229.445 46.8304 228.287 47.2161 227.204C47.6694 226.084 48.3186 225.046 49.136 224.134C50.942 222.053 53.0788 220.257 55.4681 218.811C58.1854 217.146 61.1804 215.938 64.3235 215.24C64.518 215.197 64.5506 215.493 64.3573 215.536V215.536Z" fill="white"/>
<path d="M50.8477 222.535C50.1964 221.822 49.831 220.912 49.8167 219.965C49.8025 219.019 50.1403 218.099 50.7699 217.369C50.8978 217.221 51.1431 217.404 51.015 217.552C50.4274 218.231 50.1128 219.088 50.128 219.969C50.1431 220.85 50.4871 221.697 51.0977 222.357C51.2302 222.501 50.9795 222.677 50.8477 222.535V222.535Z" fill="white"/>
<path d="M47.0596 229.857C49.0762 230.003 51.0763 229.417 52.6612 228.215C52.8181 228.096 53.0032 228.335 52.8465 228.454C51.1948 229.702 49.112 230.308 47.0138 230.151C46.8139 230.136 46.8607 229.842 47.0596 229.857V229.857Z" fill="white"/>
<path d="M58.2515 217.536C58.4435 217.862 58.7171 218.137 59.0477 218.336C59.3783 218.536 59.7556 218.654 60.1457 218.68C60.3458 218.693 60.2988 218.987 60.1 218.974C59.6691 218.944 59.2526 218.813 58.8868 218.593C58.521 218.373 58.2171 218.071 58.0016 217.713C57.9783 217.681 57.9687 217.641 57.9747 217.603C57.9807 217.564 58.0019 217.529 58.0339 217.505C58.0671 217.481 58.1086 217.472 58.1494 217.477C58.1901 217.483 58.2268 217.504 58.2515 217.536H58.2515Z" fill="white"/>
<path d="M220.46 219.9C219.814 213.175 215.696 206.442 209.092 204.057C211.494 211.032 211.239 218.595 208.373 225.408C207.258 228.032 205.732 230.839 206.608 233.544C207.152 235.228 208.578 236.547 210.194 237.394C211.809 238.241 213.619 238.676 215.406 239.104L215.751 239.395C218.815 233.311 221.106 226.625 220.46 219.9Z" fill="#F0F0F0"/>
<path d="M209.021 204.182C212.77 208.47 215.011 213.778 215.427 219.354C215.538 220.553 215.452 221.761 215.17 222.934C214.857 224.068 214.233 225.101 213.361 225.926C212.565 226.711 211.655 227.426 211.072 228.382C210.781 228.876 210.602 229.423 210.548 229.988C210.494 230.552 210.565 231.121 210.756 231.658C211.197 233.006 212.119 234.122 213.06 235.184C214.104 236.363 215.208 237.571 215.618 239.104C215.667 239.29 215.966 239.205 215.916 239.02C215.204 236.353 212.573 234.77 211.374 232.351C210.815 231.222 210.608 229.925 211.207 228.77C211.73 227.76 212.668 227.022 213.481 226.234C214.344 225.441 214.99 224.458 215.364 223.371C215.707 222.216 215.842 221.013 215.763 219.814C215.631 217.112 215.055 214.447 214.058 211.917C212.936 209.023 211.305 206.333 209.235 203.965C209.107 203.819 208.894 204.037 209.021 204.182L209.021 204.182Z" fill="white"/>
<path d="M215.403 217.551C216.372 217.357 217.237 216.841 217.844 216.093C218.451 215.346 218.76 214.416 218.717 213.471C218.715 213.432 218.697 213.396 218.668 213.37C218.638 213.344 218.599 213.329 218.559 213.33C218.518 213.331 218.48 213.346 218.451 213.374C218.423 213.401 218.406 213.438 218.406 213.476C218.448 214.357 218.159 215.222 217.593 215.917C217.026 216.612 216.218 217.09 215.315 217.265C215.119 217.304 215.208 217.589 215.403 217.551Z" fill="white"/>
<path d="M213.82 225.579C212.117 224.534 210.889 222.914 210.38 221.042C210.33 220.856 210.032 220.941 210.082 221.126C210.615 223.074 211.897 224.757 213.671 225.84C213.84 225.943 213.988 225.682 213.82 225.579H213.82Z" fill="white"/>
<path d="M212.638 209.295C212.279 209.445 211.888 209.507 211.498 209.476C211.109 209.445 210.733 209.322 210.405 209.118C210.238 209.013 210.09 209.275 210.257 209.38C210.62 209.603 211.035 209.739 211.465 209.774C211.895 209.809 212.328 209.743 212.726 209.581C212.765 209.569 212.797 209.543 212.817 209.508C212.836 209.474 212.841 209.434 212.831 209.396C212.819 209.358 212.792 209.327 212.756 209.308C212.72 209.289 212.677 209.285 212.638 209.295H212.638Z" fill="white"/>
<path d="M188.336 215.395C188.439 215.464 188.542 215.532 188.645 215.603C190.021 216.531 191.317 217.565 192.518 218.693C192.613 218.779 192.707 218.867 192.799 218.956C195.663 221.704 197.97 224.937 199.601 228.491C200.248 229.906 200.782 231.366 201.199 232.858C201.773 234.919 202.225 237.197 203.441 238.906C203.566 239.086 203.703 239.258 203.85 239.421L215.353 239.775C215.38 239.763 215.406 239.754 215.433 239.742L215.892 239.776C215.876 239.698 215.858 239.617 215.842 239.539C215.833 239.493 215.821 239.447 215.812 239.402C215.805 239.372 215.798 239.341 215.794 239.313C215.792 239.303 215.79 239.293 215.787 239.286C215.783 239.258 215.776 239.232 215.771 239.207C215.671 238.754 215.567 238.301 215.46 237.848C215.46 237.845 215.46 237.845 215.457 237.843C214.674 234.382 213.464 231.023 211.853 227.835C211.803 227.74 211.754 227.643 211.699 227.549C210.951 226.136 210.084 224.785 209.105 223.508C208.567 222.81 207.993 222.139 207.384 221.497C205.807 219.841 203.967 218.433 201.933 217.324C197.877 215.113 193.127 214.168 188.675 215.305C188.562 215.335 188.45 215.364 188.336 215.395Z" fill="#F0F0F0"/>
<path d="M188.357 215.536C194.049 216.8 199.18 219.748 203.02 223.96C203.864 224.853 204.555 225.868 205.068 226.966C205.532 228.052 205.684 229.237 205.507 230.398C205.365 231.483 205.089 232.578 205.225 233.677C205.304 234.239 205.506 234.779 205.817 235.261C206.129 235.743 206.544 236.156 207.035 236.474C208.236 237.297 209.674 237.657 211.093 237.963C212.669 238.303 214.311 238.632 215.603 239.62C215.759 239.74 215.945 239.5 215.788 239.381C213.541 237.662 210.444 237.913 207.965 236.672C206.808 236.093 205.826 235.176 205.577 233.909C205.359 232.801 205.644 231.672 205.797 230.575C205.987 229.445 205.884 228.287 205.499 227.204C205.045 226.084 204.396 225.046 203.579 224.134C201.773 222.053 199.636 220.257 197.247 218.811C194.529 217.146 191.534 215.938 188.391 215.24C188.197 215.197 188.164 215.493 188.357 215.536V215.536Z" fill="white"/>
<path d="M201.867 222.535C202.518 221.822 202.884 220.912 202.898 219.965C202.912 219.019 202.574 218.099 201.945 217.369C201.817 217.221 201.572 217.404 201.7 217.552C202.287 218.231 202.602 219.088 202.587 219.969C202.572 220.85 202.228 221.697 201.617 222.357C201.484 222.501 201.735 222.677 201.867 222.535V222.535Z" fill="white"/>
<path d="M205.655 229.857C203.639 230.003 201.638 229.417 200.054 228.215C199.897 228.096 199.711 228.335 199.868 228.454C201.52 229.702 203.603 230.308 205.701 230.151C205.901 230.136 205.854 229.842 205.655 229.857V229.857Z" fill="white"/>
<path d="M194.463 217.536C194.271 217.862 193.998 218.137 193.667 218.336C193.336 218.536 192.959 218.654 192.569 218.68C192.369 218.693 192.416 218.987 192.615 218.974C193.046 218.944 193.462 218.813 193.828 218.593C194.194 218.373 194.498 218.071 194.713 217.713C194.736 217.681 194.746 217.641 194.74 217.603C194.734 217.564 194.713 217.529 194.681 217.505C194.648 217.481 194.606 217.472 194.565 217.477C194.525 217.483 194.488 217.504 194.463 217.536H194.463Z" fill="white"/>
<path d="M300 240.313C300 240.415 299.958 240.512 299.883 240.583C299.808 240.655 299.706 240.695 299.6 240.695H0.399595C0.293648 240.695 0.19204 240.655 0.117124 240.583C0.0422086 240.512 0.00012207 240.415 0.00012207 240.313C0.00012207 240.212 0.0422086 240.115 0.117124 240.043C0.19204 239.971 0.293648 239.931 0.399595 239.931H299.6C299.706 239.931 299.808 239.972 299.883 240.043C299.958 240.115 300 240.212 300 240.313Z" fill="#3F3D56"/>
<path d="M192.724 92.4851C193.558 92.4851 194.234 91.8381 194.234 91.0401C194.234 90.242 193.558 89.595 192.724 89.595C191.89 89.595 191.213 90.242 191.213 91.0401C191.213 91.8381 191.89 92.4851 192.724 92.4851Z" fill="#3F3D56"/>
<path d="M173.808 102.171L194.173 89.9314C194.358 89.8207 194.563 89.7468 194.778 89.7143C194.993 89.6817 195.213 89.6912 195.424 89.7421C195.635 89.793 195.833 89.8843 196.006 90.0104C196.179 90.1366 196.323 90.295 196.431 90.476C196.538 90.6571 196.606 90.8571 196.63 91.064C196.654 91.2708 196.634 91.4802 196.572 91.6795C196.509 91.8788 196.405 92.0639 196.265 92.2235C196.125 92.3832 195.953 92.5141 195.759 92.6084L174.319 103.034C174.2 103.092 174.062 103.104 173.935 103.067C173.807 103.03 173.699 102.947 173.633 102.836C173.567 102.725 173.548 102.594 173.581 102.47C173.614 102.346 173.695 102.239 173.808 102.171V102.171Z" fill="#E4E4E4"/>
<path d="M132.951 128.526C132.791 128.298 132.707 128.028 132.711 127.753C132.715 127.478 132.807 127.211 132.974 126.987C133.319 126.546 133.778 126.198 134.306 125.977C135.395 125.447 136.569 125.092 137.78 124.927C138.7 124.802 139.704 124.762 140.417 124.193C141.126 123.628 141.521 122.57 142.44 122.482C143.328 122.397 144.01 123.326 144.901 123.384C145.998 123.455 146.717 122.227 147.785 121.975C148.5 121.806 149.235 122.104 149.905 122.395L153.929 124.141L155.992 125.036C156.712 125.349 157.525 125.77 157.661 126.515C157.847 127.54 156.657 128.262 155.638 128.626C148.367 131.193 140.377 131.194 133.105 128.629" fill="#F95738"/>
<path d="M139.013 147.398C168.213 147.398 191.885 144.163 191.885 140.173C191.885 136.182 168.213 132.947 139.013 132.947C109.813 132.947 86.1421 136.182 86.1421 140.173C86.1421 144.163 109.813 147.398 139.013 147.398Z" fill="#3F3D56"/>
<path d="M246.267 184.97H210.012C208.343 184.97 206.991 186.264 206.991 187.86C206.991 189.456 208.343 190.75 210.012 190.75H246.267C247.935 190.75 249.288 189.456 249.288 187.86C249.288 186.264 247.935 184.97 246.267 184.97Z" fill="#3F3D56"/>
<path d="M263.836 133.442L251.862 187.857L254.981 201.784L260.869 228.069V239.883C260.87 239.899 260.868 239.915 260.866 239.931C260.864 240.192 260.814 240.451 260.718 240.696H255.985C255.889 240.451 255.839 240.192 255.837 239.931C255.834 239.915 255.833 239.899 255.834 239.883V228.576L250.49 204.719L249.409 199.903L247.317 190.567L246.713 187.863V187.86L247.31 185.15L247.77 183.059L258.909 132.453C258.976 132.143 259.107 131.849 259.294 131.588C259.48 131.326 259.718 131.102 259.995 130.929C260.272 130.756 260.582 130.637 260.907 130.578C261.232 130.52 261.566 130.523 261.89 130.588C262.214 130.653 262.521 130.778 262.794 130.957C263.067 131.136 263.301 131.364 263.482 131.629C263.662 131.894 263.787 132.191 263.848 132.502C263.909 132.813 263.905 133.132 263.836 133.442L263.836 133.442Z" fill="#3F3D56"/>
<path d="M212.53 187.86V239.883C212.53 239.899 212.529 239.915 212.526 239.931C212.524 240.192 212.474 240.451 212.378 240.695H207.645C207.55 240.451 207.5 240.192 207.497 239.931C207.495 239.915 207.494 239.899 207.494 239.883V187.86C207.494 187.221 207.759 186.609 208.232 186.157C208.704 185.705 209.344 185.452 210.012 185.452C210.68 185.452 211.32 185.705 211.792 186.157C212.264 186.609 212.53 187.221 212.53 187.86Z" fill="#3F3D56"/>
<path d="M216.054 179.19H240.224C242.628 179.19 244.933 180.103 246.633 181.729C248.333 183.355 249.288 185.561 249.288 187.86H206.991C206.991 185.561 207.946 183.355 209.645 181.729C211.345 180.103 213.651 179.19 216.054 179.19Z" fill="#3F3D56"/>
<path d="M252.309 204.719H210.012C209.344 204.719 208.704 204.466 208.232 204.014C207.76 203.562 207.494 202.95 207.494 202.311C207.494 201.672 207.76 201.06 208.232 200.608C208.704 200.156 209.344 199.903 210.012 199.903H252.309C252.977 199.903 253.617 200.156 254.089 200.608C254.561 201.06 254.827 201.672 254.827 202.311C254.827 202.95 254.561 203.562 254.089 204.014C253.617 204.466 252.977 204.719 252.309 204.719Z" fill="#3F3D56"/>
<path d="M55.5637 190.838H98.227C99.8955 190.838 101.248 189.544 101.248 187.948V187.072C101.248 185.476 99.8955 184.182 98.227 184.182H55.5637C53.8952 184.182 52.5425 185.476 52.5425 187.072V187.948C52.5425 189.544 53.8952 190.838 55.5637 190.838Z" fill="#3F3D56"/>
<path d="M55.1243 187.549L54.3521 190.593L51.5189 201.743L50.2971 206.56L44.6238 228.904V238.599C44.6253 239.073 44.478 239.537 44.2009 239.931C43.9831 240.25 43.6869 240.512 43.3383 240.696H40.8742C40.5256 240.512 40.2294 240.25 40.0115 239.931C39.7344 239.537 39.587 239.073 39.5885 238.599V228.326L45.8928 203.502L49.9614 187.472L36.1645 124.771C36.0962 124.462 36.0924 124.143 36.1532 123.832C36.214 123.521 36.3383 123.224 36.5189 122.959C36.6995 122.695 36.9329 122.466 37.2058 122.288C37.4787 122.109 37.7857 121.984 38.1093 121.919C38.4329 121.854 38.7667 121.85 39.0916 121.909C39.4165 121.967 39.7262 122.087 40.0029 122.26C40.2797 122.433 40.518 122.656 40.7044 122.918C40.8908 123.179 41.0215 123.473 41.0891 123.782L53.842 181.723L54.4295 184.395L55.1142 187.51L55.1243 187.549Z" fill="#3F3D56"/>
<path d="M100.288 187.51V238.599C100.29 239.073 100.142 239.538 99.8651 239.931C99.6472 240.25 99.351 240.512 99.0024 240.696H96.535C96.1881 240.511 95.8932 240.249 95.6756 239.931C95.3986 239.538 95.2513 239.073 95.2528 238.599V187.51C95.2528 186.872 95.518 186.259 95.9902 185.807C96.4623 185.356 97.1027 185.102 97.7704 185.102C98.4382 185.102 99.0786 185.356 99.5507 185.807C100.023 186.259 100.288 186.872 100.288 187.51Z" fill="#3F3D56"/>
<path d="M101.248 187.51H52.5425V186.196C52.5425 185.058 52.7769 183.93 53.2324 182.878C53.6879 181.826 54.3555 180.87 55.1972 180.065C56.0388 179.26 57.038 178.622 58.1376 178.186C59.2373 177.75 60.4159 177.526 61.6061 177.526H92.1845C94.5884 177.526 96.8937 178.439 98.5935 180.065C100.293 181.691 101.248 183.897 101.248 186.196V187.51H101.248Z" fill="#3F3D56"/>
<path d="M97.7692 206.559H49.0635C48.3958 206.559 47.7554 206.305 47.2833 205.853C46.8111 205.402 46.5458 204.789 46.5458 204.15C46.5458 203.511 46.8111 202.899 47.2833 202.447C47.7554 201.995 48.3958 201.742 49.0635 201.742H97.7692C98.4369 201.742 99.0773 201.995 99.5495 202.447C100.022 202.899 100.287 203.511 100.287 204.15C100.287 204.789 100.022 205.402 99.5495 205.853C99.0773 206.305 98.4369 206.559 97.7692 206.559Z" fill="#3F3D56"/>
<path d="M160.364 227.568L155.072 225.147L162.341 203.988L170.151 207.561L160.364 227.568Z" fill="#9E616A"/>
<path d="M196.225 225.652L190.535 226.995L182.291 206.17L190.689 204.188L196.225 225.652Z" fill="#9E616A"/>
<path d="M174.416 135.602C175.171 136.775 176.375 137.619 177.771 137.954C179.168 138.289 180.646 138.088 181.889 137.396C182.14 137.251 182.377 137.086 182.599 136.904L199.328 146.088L198.602 136.66L182.826 129.384C181.968 128.559 180.848 128.03 179.641 127.88C178.435 127.73 177.21 127.967 176.16 128.554C175.555 128.901 175.029 129.361 174.612 129.906C174.196 130.45 173.898 131.07 173.735 131.726C173.573 132.383 173.549 133.064 173.666 133.73C173.783 134.396 174.038 135.032 174.416 135.602Z" fill="#9E616A"/>
<path d="M192.136 142.63L195.093 144.354L208.374 152.101C209.247 152.624 210.218 152.976 211.233 153.139C212.248 153.302 213.286 153.271 214.289 153.05C215.292 152.829 216.239 152.42 217.077 151.849C217.914 151.277 218.626 150.553 219.171 149.717C220.154 148.168 220.502 146.324 220.147 144.543L214.244 116.331C214.026 115.224 213.561 114.174 212.88 113.255C212.199 112.335 211.318 111.567 210.298 111.003C209.278 110.439 208.143 110.092 206.97 109.987C205.797 109.881 204.614 110.019 203.502 110.391C201.633 111.019 200.084 112.305 199.171 113.987C198.258 115.669 198.049 117.621 198.586 119.445L204.759 139.467L195.298 135.247L192.136 142.63Z" fill="#E6E6E6"/>
<path d="M185.144 219.816L176.038 202.347L176.04 202.307L176.939 170.266C176.95 169.981 176.974 169.694 177.01 169.413C177.169 168.128 177.594 166.886 178.259 165.76C178.925 164.634 179.818 163.646 180.887 162.853C181.911 162.087 183.083 161.524 184.337 161.196C185.591 160.868 186.901 160.782 188.189 160.943L214.226 164.166L215.128 160.634L215.297 160.576L240.243 151.83L240.387 152.054C243.654 157.139 245.938 167.297 246.56 170.29L246.569 170.333C246.582 170.396 246.59 170.434 246.593 170.445C247.877 175.551 242.571 184.01 237.285 185.281C226.15 187.996 216.191 185.879 204.66 183.426C200.526 182.546 196.252 181.637 191.545 180.851L191.685 183.501C191.8 185.541 192.243 187.551 192.998 189.462C193.838 191.813 194.501 193.671 193.099 197.543L192.421 199.416C192.772 200.347 192.894 201.342 192.774 202.324C192.655 203.307 192.299 204.249 191.734 205.078L191.598 205.277L197.603 219.812L185.144 219.816Z" fill="#2F2E41"/>
<path d="M170.183 212.09L159.326 211.125L163.172 199.356C163.966 191.672 165.966 184.146 169.105 177.033L174.352 165.137C174.364 164.873 174.388 164.606 174.422 164.345C174.58 163.06 175.005 161.819 175.67 160.693C176.336 159.567 177.229 158.578 178.298 157.786C179.322 157.02 180.495 156.457 181.749 156.129C183.002 155.801 184.312 155.715 185.601 155.876L211.598 159.094L212.731 150.003L237.684 146.808L237.798 146.986C242.16 153.775 244.929 159.089 246.512 163.712C246.592 163.947 246.663 164.188 246.723 164.427C248.016 169.568 244.788 174.78 239.528 176.045C226.122 179.315 210.001 179.224 188.806 175.758L178.548 199.111C177.568 201.341 176.354 203.471 174.925 205.468L170.183 212.09Z" fill="#2F2E41"/>
<path d="M208.058 94.1996C215.004 94.1996 220.635 88.6927 220.635 81.8996C220.635 75.1065 215.004 69.5996 208.058 69.5996C201.111 69.5996 195.48 75.1065 195.48 81.8996C195.48 88.6927 201.111 94.1996 208.058 94.1996Z" fill="#9E616A"/>
<path d="M211.689 159.524L209.884 153.339L209.441 150.288L206.847 150.371L201.756 139.13L199.779 136.166C199.376 135.76 199.01 135.37 198.683 134.995C196.623 132.767 194.971 130.223 193.797 127.468C192.974 125.49 192.491 123.397 192.367 121.27C191.998 114.99 194.765 108.345 200.828 100.958C200.729 100.696 200.662 100.424 200.631 100.148C200.522 99.2501 200.789 98.348 201.372 97.6375C201.955 96.927 202.808 96.4656 203.745 96.3537L209.593 95.7256C210.047 95.6763 210.508 95.714 210.947 95.8366C211.386 95.9591 211.796 96.164 212.152 96.4393C212.523 96.7241 212.832 97.0768 213.059 97.4768C213.287 97.8768 213.429 98.3162 213.477 98.7692C213.555 99.47 213.411 100.177 213.063 100.799C216.044 101.161 218.852 102.337 221.151 104.188C223.45 106.038 225.142 108.484 226.024 111.232C229.523 117.48 232.312 124.069 234.343 130.887C234.743 132.222 234.565 133.598 234.393 134.928C234.234 136.157 234.069 137.428 234.346 138.695C234.627 139.983 235.305 141.275 236.022 142.644C236.844 144.211 237.693 145.831 237.923 147.483L237.939 147.599L211.689 159.524Z" fill="#E4E4E4"/>
<path opacity="0.2" d="M193.952 127.407C195.121 130.146 196.764 132.676 198.812 134.891C199.162 135.292 199.533 135.686 199.921 136.08L201.91 139.066C209.244 133.807 215.187 113.101 215.187 113.101L206.912 111.561L193.952 127.407Z" fill="black"/>
<path d="M188.942 95.3487C189.667 96.5394 189.877 97.9536 189.529 99.2904C189.18 100.627 188.3 101.781 187.075 102.507C186.824 102.65 186.561 102.774 186.288 102.876L186.874 121.32L178.525 116.292L179.248 99.5481C178.893 98.4338 178.933 97.2385 179.363 96.1485C179.793 95.0585 180.587 94.1352 181.623 93.5227C182.226 93.1736 182.897 92.9436 183.595 92.8465C184.292 92.7494 185.003 92.7871 185.686 92.9573C186.368 93.1275 187.008 93.4268 187.567 93.8376C188.127 94.2483 188.594 94.7621 188.942 95.3487Z" fill="#9E616A"/>
<path d="M187.608 114.358L178.426 115.607L178.821 133.796C178.844 135.094 179.213 136.364 179.894 137.487C180.574 138.609 181.544 139.547 182.71 140.21C184.135 141.012 185.793 141.349 187.435 141.17C189.078 140.992 190.615 140.308 191.816 139.221L213.493 119.275C215.018 117.891 215.931 116 216.043 113.992C216.156 111.984 215.46 110.011 214.098 108.478C213.425 107.715 212.598 107.09 211.666 106.638C210.735 106.187 209.718 105.919 208.677 105.851C207.635 105.783 206.59 105.916 205.603 106.241C204.616 106.567 203.707 107.079 202.931 107.747C202.717 107.93 202.513 108.124 202.32 108.328L188.007 124.081L187.608 114.358Z" fill="#E6E6E6"/>
<path d="M110.813 233.001L117.33 233L120.43 208.953L110.812 208.953L110.813 233.001Z" fill="#FFB6B6"/>
<path d="M73.8724 94.5566C81.0562 94.5566 86.8798 88.9856 86.8798 82.1134C86.8798 75.2412 81.0562 69.6702 73.8724 69.6702C66.6885 69.6702 60.8649 75.2412 60.8649 82.1134C60.8649 88.9856 66.6885 94.5566 73.8724 94.5566Z" fill="#FFB6B6"/>
<path d="M119.457 225.593H110.228L107.875 222.576L107.238 219.733L106.69 219.226C105.947 218.543 105.466 217.64 105.326 216.663C105.186 215.686 105.395 214.693 105.919 213.844L99.2303 183.991C97.4786 183.844 77.7228 182.154 63.99 179.829C60.4755 179.234 57.7315 177.6 55.8343 174.972C51.1723 168.513 53.1694 158.064 53.19 157.959L53.2131 157.843L53.3362 157.829L85.4131 154.385L85.4562 154.405C86.5207 154.887 111.573 166.265 115.667 170.181C117.516 171.95 121.641 182.457 122.564 193.628C122.729 195.629 122.134 197.667 121.559 199.638C121.02 201.482 120.463 203.389 120.573 205.192C120.743 207.973 120.904 210.891 121.051 213.864C121.075 214.338 121.448 214.828 121.809 215.302C122.186 215.797 122.542 216.265 122.564 216.755C122.784 221.502 119.54 225.492 119.507 225.532L119.457 225.593Z" fill="#2F2E41"/>
<path d="M121.558 115.256C120.86 115.073 120.127 115.039 119.413 115.156C118.699 115.274 118.021 115.539 117.426 115.934C116.831 116.33 116.334 116.845 115.969 117.444C115.605 118.043 115.382 118.711 115.317 119.401L104.509 122.632L104.96 129.394L120.155 124.626C121.375 124.654 122.562 124.253 123.493 123.499C124.425 122.746 125.034 121.692 125.207 120.537C125.38 119.382 125.104 118.206 124.432 117.233C123.759 116.26 122.737 115.556 121.558 115.256V115.256Z" fill="#FFB6B6"/>
<path d="M114.507 126.445L106.429 129.37L106.223 129.753C105.728 130.672 104.871 131.366 103.841 131.68C102.812 131.995 101.694 131.906 100.733 131.432L82.5776 138.006C82.5776 138.006 74.4697 130.244 68.6971 123.317L70.6645 111.741C71.1202 109.055 72.0887 106.473 73.5216 104.122C85.3601 106.605 92.1558 122.437 92.1558 122.437L113.492 118.542L114.507 126.445Z" fill="#F95738"/>
<path d="M72.024 93.8915C68.7675 94.7329 65.1775 93.6143 62.6361 91.4925C60.0948 89.3708 58.5051 86.3642 57.5892 83.2587C56.9183 80.9843 56.6002 78.4596 57.6589 76.3244C58.7175 74.1891 61.5666 72.7485 63.7647 73.8271C62.4087 72.3158 63.0861 69.8162 64.6698 68.5233C66.2535 67.2305 68.4281 66.8598 70.4993 66.6572C73.5051 66.3631 76.6099 66.3302 79.4702 67.2618C82.3305 68.1933 84.9293 70.23 85.8245 72.9906C86.7388 73.3979 87.7684 73.5035 88.7522 73.291C89.7359 73.0786 90.6182 72.56 91.2609 71.8165C91.4266 72.6704 91.2935 73.5527 90.8823 74.327C90.471 75.1013 89.8044 75.7243 88.9857 76.0997L93.3682 74.7404C94.1219 76.2666 92.8012 78.1554 91.1124 78.6441C89.4236 79.1328 87.6006 78.5987 85.9979 77.8926C84.3953 77.1865 82.8422 76.2939 81.1014 76.0185C79.3607 75.7431 77.3159 76.2782 76.5107 77.7801C76.089 78.5667 76.067 79.488 75.8221 80.3404C75.5772 81.1929 74.957 82.0767 74.0357 82.1464C73.4537 82.1905 72.8838 81.8939 72.3034 81.9546C71.5838 82.0298 71.0331 82.6533 70.8414 83.3211C70.6969 84.0015 70.6952 84.7027 70.8362 85.3838L71.9494 93.5238" fill="#2F2E41"/>
<path d="M55.909 176.459C55.9066 176.459 55.9041 176.458 55.9017 176.458L55.7988 176.441L55.7691 176.345C55.3951 175.142 54.9192 173.911 54.459 172.719C53.7812 171.07 53.209 169.382 52.7453 167.666C52.3804 166.025 52.1274 164.364 51.9879 162.691C51.8596 161.477 51.7268 160.222 51.501 158.986C51.4008 158.438 51.7807 157.918 52.148 157.416C52.4886 156.95 52.8104 156.51 52.7429 156.093C52.6738 155.667 52.1803 155.2 51.703 154.748C51.1799 154.252 50.6389 153.739 50.5623 153.2C49.5196 145.84 49.0343 138.417 49.1101 130.99C49.2179 120.713 49.7034 113.709 50.553 110.171C52.8376 100.657 63.3928 98.9203 65.0449 98.7059C65.2209 98.2575 65.4914 97.8486 65.8397 97.5046C66.188 97.1606 66.6066 96.8888 67.0695 96.7062C67.5323 96.5236 68.0294 96.4341 68.53 96.4433C69.0306 96.4524 69.5238 96.56 69.979 96.7594L77.4786 100.044C78.9998 100.712 80.3611 101.673 81.4779 102.866C82.5946 104.059 83.4429 105.459 83.9701 106.979L85.0842 110.228L85.6423 132.039L82.5497 147.398L88.5922 156.069C56.3882 172.982 56.0127 176.459 55.909 176.459Z" fill="#F95738"/>
<path d="M107.306 230.578L109.425 230.578L117.697 227.359L122.131 230.577H122.132C124.638 230.577 127.041 231.529 128.812 233.224C130.584 234.919 131.58 237.218 131.58 239.615V239.909L107.306 239.91L107.306 230.578Z" fill="#2F2E41"/>
<path d="M124.264 130.82C123.64 130.469 122.942 130.254 122.221 130.189C121.5 130.124 120.772 130.211 120.09 130.444C119.408 130.677 118.787 131.05 118.272 131.537C117.757 132.024 117.36 132.614 117.109 133.264L105.794 133.686L104.269 138.728L120.355 139.515C121.524 139.847 122.78 139.756 123.884 139.261C124.989 138.766 125.865 137.901 126.347 136.829C126.829 135.757 126.883 134.554 126.499 133.446C126.115 132.339 125.32 131.404 124.264 130.82Z" fill="#FFB6B6"/>
<path d="M114.97 140.059L103.348 139.92L101.877 139.901L78.2302 139.616C78.2302 139.616 71.8089 133.756 66.2175 127.722L67.0012 122.3C67.7656 116.978 70.5253 112.103 74.7665 108.583C82.7747 113.701 87.4189 123.834 87.4189 123.834L95.2057 127.167C100.686 127.402 106.026 128.898 110.772 131.528L113.333 132.947L114.97 140.059Z" fill="#F95738"/>
<path d="M200.377 235.909L196.51 236.822L194.919 233.492L194.052 237.402L183.795 239.824C183.304 239.94 182.786 239.902 182.318 239.717C181.85 239.532 181.456 239.209 181.194 238.794C180.932 238.38 180.815 237.896 180.861 237.413C180.907 236.931 181.112 236.475 181.448 236.112L188.242 228.767L187.332 225.236L196.074 223.694L200.377 235.909Z" fill="#2F2E41"/>
<path d="M159.409 237.051L155.721 235.611L156.484 232.023L153.377 234.695L143.596 230.876C143.127 230.693 142.732 230.371 142.468 229.958C142.203 229.545 142.084 229.062 142.127 228.579C142.17 228.096 142.374 227.64 142.708 227.275C143.041 226.911 143.488 226.658 143.983 226.554L153.995 224.444L155.432 221.076L163.447 224.753L159.409 237.051Z" fill="#2F2E41"/>
<path d="M146.566 138.888H143.545C140.297 138.885 137.182 137.649 134.885 135.451C132.588 133.254 131.296 130.274 131.292 127.167V127.006H158.819V127.167C158.815 130.274 157.523 133.254 155.226 135.451C152.929 137.649 149.815 138.885 146.566 138.888Z" fill="#E4E4E4"/>
<path d="M143.545 122.832C143.545 123.63 142.035 124.277 142.035 124.277C142.035 124.277 140.524 123.63 140.524 122.832C140.524 122.034 142.035 121.387 142.035 121.387C142.035 121.387 143.545 122.034 143.545 122.832Z" fill="#3F3D56"/>
<path d="M152.609 122.832C152.609 123.63 151.098 124.277 151.098 124.277C151.098 124.277 149.588 123.63 149.588 122.832C149.588 122.034 151.098 121.387 151.098 121.387C151.098 121.387 152.609 122.034 152.609 122.832Z" fill="#3F3D56"/>
<path d="M146.566 125.722C146.566 126.52 145.056 127.167 145.056 127.167C145.056 127.167 143.545 126.52 143.545 125.722C143.545 124.924 145.056 124.277 145.056 124.277C145.056 124.277 146.566 124.924 146.566 125.722Z" fill="#3F3D56"/>
<path d="M135.992 119.781C136.826 119.781 137.503 119.134 137.503 118.336C137.503 117.538 136.826 116.891 135.992 116.891C135.158 116.891 134.482 117.538 134.482 118.336C134.482 119.134 135.158 119.781 135.992 119.781Z" fill="#3F3D56"/>
<path d="M114.023 115.23L137.847 118.378C138.063 118.406 138.27 118.476 138.457 118.584C138.643 118.691 138.805 118.833 138.933 119.002C139.06 119.171 139.15 119.362 139.198 119.565C139.246 119.768 139.25 119.979 139.211 120.183C139.171 120.388 139.089 120.583 138.968 120.756C138.848 120.929 138.692 121.078 138.51 121.192C138.328 121.306 138.124 121.383 137.909 121.42C137.695 121.456 137.475 121.451 137.264 121.404L113.834 116.206C113.704 116.177 113.591 116.101 113.518 115.994C113.444 115.887 113.417 115.758 113.441 115.632C113.466 115.506 113.54 115.394 113.648 115.32C113.756 115.245 113.89 115.213 114.023 115.23Z" fill="#E4E4E4"/>
<path d="M142.974 43.4207V0H139.953V43.4207C135.825 43.781 131.987 45.6043 129.192 48.5327C126.397 51.461 124.847 55.2829 124.847 59.2482V63.5835H135.421C135.421 65.1165 136.058 66.5868 137.191 67.6708C138.324 68.7548 139.861 69.3638 141.463 69.3638C143.066 69.3638 144.603 68.7548 145.736 67.6708C146.869 66.5868 147.506 65.1165 147.506 63.5835H158.08V59.2482C158.08 55.2829 156.53 51.461 153.735 48.5327C150.94 45.6043 147.102 43.781 142.974 43.4207Z" fill="#F0F0F0"/>
<path d="M181.872 32.5655V0H179.606V32.5655C176.51 32.8358 173.632 34.2032 171.536 36.3995C169.439 38.5957 168.277 41.4622 168.277 44.4361V47.6876H176.207C176.207 48.8374 176.685 49.9401 177.535 50.7531C178.385 51.5661 179.537 52.0228 180.739 52.0228C181.941 52.0228 183.094 51.5661 183.944 50.7531C184.794 49.9401 185.271 48.8374 185.271 47.6876H193.202V44.4361C193.201 41.4622 192.039 38.5957 189.943 36.3995C187.847 34.2032 184.968 32.8358 181.872 32.5655Z" fill="#F0F0F0"/>
<path d="M105.335 32.5655V0H103.069V32.5655C99.9729 32.8358 97.0943 34.2032 94.9981 36.3995C92.902 38.5957 91.7396 41.4622 91.7393 44.4361V47.6876H99.67C99.67 48.8374 100.147 49.9401 100.997 50.7531C101.847 51.5661 103 52.0228 104.202 52.0228C105.404 52.0228 106.556 51.5661 107.406 50.7531C108.256 49.9401 108.734 48.8374 108.734 47.6876H116.664V44.4361C116.664 41.4622 115.502 38.5957 113.405 36.3995C111.309 34.2032 108.431 32.8358 105.335 32.5655Z" fill="#F0F0F0"/>
<path d="M241.713 76.5652C239.576 74.1802 238.559 71.0159 236.85 68.3076C235.141 65.5993 232.167 63.1754 229.025 63.8057C226.859 64.2401 225.185 66.0685 224.338 68.1069C223.49 70.1452 223.331 72.3931 223.183 74.5953C223.235 70.0697 220.119 65.6825 215.825 64.2384C211.532 62.7944 206.394 64.4051 203.696 68.0409C202.519 66.9971 200.982 66.4027 199.377 66.3704C197.772 66.3382 196.211 66.8704 194.989 67.8661C192.576 69.9293 192.042 73.8562 193.816 76.4878C195.591 79.1195 199.434 80.0998 202.255 78.6403L203.252 79.5177C202.69 81.3955 203.779 83.6136 205.608 84.3205C207.092 84.8937 209.186 84.7983 209.742 86.2877C210.13 87.3283 209.404 88.4391 208.633 89.2388C207.862 90.0385 206.946 90.8643 206.853 91.9709C206.713 93.6406 208.517 94.8102 210.157 95.1625C214.11 96.0119 218.497 94.2605 220.776 90.9228C220.82 90.8584 220.867 90.794 220.919 90.7295C222.197 89.1655 223.129 87.3685 223.657 85.4485C224.185 83.5284 224.298 81.5255 223.99 79.5621C223.862 78.7907 223.991 78.2169 224.547 78.0342C226.95 77.2446 233.683 78.9019 235.72 80.3998C237.758 81.8976 239.39 83.8799 241.353 85.4744C243.315 87.069 245.817 88.299 248.309 87.8647C250.305 87.517 252.003 86.1308 253.145 84.4588C254.287 82.7868 254.944 80.8378 255.533 78.9009C251.119 81.34 245.079 80.319 241.713 76.5652Z" fill="#2F2E41"/>
</g>
<defs>
<clipPath id="clip0_28_41">
<rect width="300" height="240.696" fill="white"/>
</clipPath>
</defs>
</svg>
